<svg width="28" height="28" viewBox="0 0 28 28" fill="none" xmlns="http://www.w3.org/2000/svg">
<path d="M26.3911 21.1434C25.8104 20.7342 25.1402 20.5144 24.4632 20.4785C21.9118 18.8054 20.2404 17.5495 19.2646 16.5724L16.2671 13.5707L18.0861 11.5318C18.4308 11.7267 18.8011 11.8551 19.1714 11.908C19.4509 11.9546 19.6372 11.9546 19.8236 11.9546C20.1962 11.9546 20.2893 11.9546 20.662 12.2811C20.4757 12.4211 20.3825 12.6543 20.3825 12.8875C20.3825 13.1207 20.4757 13.4006 20.662 13.5871L22.2922 15.2197C22.5251 15.4995 22.8977 15.6394 23.2704 15.6394C23.643 15.6394 24.0156 15.4995 24.2485 15.173L27.5556 11.8613C27.8351 11.6281 27.9748 11.255 27.9748 10.8818C27.9748 10.5087 27.8351 10.1822 27.5556 9.90232L25.9253 8.26979C25.739 8.08324 25.5061 7.98993 25.2732 7.98993C25.0403 7.98993 24.8075 8.12986 24.6211 8.26979C24.2485 7.94331 24.2485 7.85 24.2485 7.47684C24.2485 7.29028 24.2485 7.05705 24.1553 6.77719C24.0621 6.12416 23.7361 5.4712 23.2237 4.9581L21.5469 3.27894C20.5687 2.29944 20.103 1.83302 18.8454 1.2733C16.1438 0.013935 13.3957 0.24717 9.38992 2.06626C9.15701 2.15956 9.06389 2.34612 9.11045 2.57935C9.15701 2.81258 9.34336 2.95251 9.57622 2.95251H10.1817C12.2312 2.95251 13.3025 2.95251 15.1656 4.81823C15.9814 5.63518 16.005 6.88782 15.274 7.80944C15.1755 7.82431 15.1005 7.86859 15.0259 7.94331L12.9568 10.2559L11.3928 8.68963C9.67371 6.96817 8.46456 5.33946 7.53396 3.5259C7.4851 2.60821 7.11737 1.74961 6.45549 1.0868C5.66369 0.293904 4.54581 -0.0792603 3.42793 0.0140445C3.28819 0.0606695 3.14846 0.153974 3.1019 0.247279C3.00872 0.387209 3.00872 0.573763 3.1019 0.713693L4.40607 3.04587C4.1266 3.65222 3.47449 4.02538 2.82243 3.97876L1.47164 1.73983C1.42508 1.5999 1.23873 1.50659 1.09899 1.50659C0.959256 1.45997 0.819521 1.55322 0.726346 1.69315C-0.391535 3.3723 0.0276707 5.61118 1.70449 6.77724C2.28221 7.19047 2.93307 7.42026 3.59223 7.46738C3.59959 7.4705 3.60653 7.47432 3.61417 7.47689C5.43073 8.40977 7.06099 9.62246 8.78437 11.3483L10.4879 13.0154L0.586666 24.082C0.21402 24.4551 0.0277252 24.9682 0.0277252 25.4813C0.0277252 25.9944 0.21402 26.4608 0.586666 26.8339L1.23878 27.487C1.61143 27.8134 2.07719 28 2.54296 28C3.00872 28 3.5211 27.8135 3.89375 27.4403L13.7837 16.3546L16.6562 19.2311C17.6334 20.2097 18.8896 21.9332 20.5641 24.4481C20.6241 25.3458 20.991 26.1839 21.6401 26.8339C22.3388 27.5336 23.2704 27.9067 24.2485 27.9067C24.3882 27.9067 24.528 27.9067 24.6212 27.9067C24.7609 27.9067 24.9006 27.8134 24.9938 27.6735C25.087 27.5336 25.087 27.347 24.9938 27.2071L23.643 24.9216C23.969 24.3153 24.5746 23.9421 25.2733 23.9887L26.5774 26.2276C26.624 26.3675 26.8104 26.4608 26.9501 26.4608C27.1364 26.4142 27.2761 26.3675 27.3693 26.2276C28.4871 24.5484 28.0213 22.3095 26.3911 21.1434ZM15.7712 4.07201C14.2807 2.62608 13.1628 2.15962 11.9052 2.01969C14.5602 1.18011 16.5165 1.22673 18.4728 2.11299C19.5906 2.57941 19.9633 2.95257 20.9414 3.93208L22.6183 5.61123C22.9909 5.9844 23.2238 6.45081 23.2704 6.91723C23.3169 7.15046 23.3169 7.33702 23.3169 7.47695C23.3169 7.99004 23.3635 8.36315 23.9224 8.92287C24.1087 9.10942 24.3882 9.20273 24.6211 9.20273C24.9006 9.20273 25.1335 9.10942 25.2732 8.92287L26.9035 10.5554C26.9967 10.6487 27.0432 10.742 27.0432 10.8819C27.0432 11.0218 26.9967 11.1151 26.9035 11.2084L23.5964 14.5201C23.4101 14.7066 23.1306 14.7066 22.9443 14.5201L21.314 12.8875C21.5003 12.7476 21.5935 12.5144 21.5469 12.2345C21.5469 12.0013 21.4538 11.7214 21.2675 11.5349C20.7085 10.9751 20.3359 10.9285 19.8236 10.9285C19.6838 10.9285 19.4975 10.9285 19.2646 10.8819C18.7522 10.8353 18.333 10.602 17.9604 10.2289L15.9576 8.22322C16.9822 6.96391 16.8891 5.19145 15.7712 4.07201ZM1.14561 2.95257L2.12375 4.63173C2.21693 4.77166 2.35666 4.86496 2.4964 4.86496H2.72931C3.80063 4.91159 4.77877 4.35187 5.24454 3.41904L5.33771 3.1858C5.43089 3.04587 5.43089 2.90594 5.33771 2.76601L4.31295 0.993553C4.87189 1.08686 5.38427 1.36672 5.80348 1.78651C6.28371 2.30747 6.59118 2.96634 6.60936 3.67408C6.60035 3.70999 6.59528 3.74864 6.59528 3.7922C6.59528 4.00822 6.56924 4.21893 6.52104 4.42205C6.34534 5.09743 5.924 5.68628 5.33766 6.07776C4.40607 6.6841 3.14846 6.6841 2.21693 6.03113C1.23878 5.33137 0.819576 4.07201 1.14561 2.95257ZM9.43654 10.6953C8.03919 9.24941 6.64184 8.12997 5.15131 7.24371C5.38422 7.15041 5.66369 7.01048 5.89655 6.87055C6.59522 6.40413 7.06099 5.79773 7.34046 5.05146C8.22543 6.54406 9.34331 7.94336 10.7407 9.34266L12.3405 10.9447L11.0859 12.347L9.43654 10.6953ZM3.24163 26.7406C2.86899 27.1138 2.26349 27.1604 1.89084 26.7873L1.23873 26.1809C1.05243 25.9944 0.959256 25.7611 0.959256 25.5279C0.959256 25.248 1.05243 25.0148 1.28529 24.7816L1.54909 24.4861L2.21687 25.1548C2.31005 25.2481 2.40317 25.2947 2.5429 25.2947C2.68264 25.2947 2.77581 25.2481 2.86893 25.1548C3.05523 24.9682 3.05523 24.6884 2.86893 24.5018L2.16458 23.7964L2.78012 23.1068L3.52105 23.8487C3.61422 23.942 3.70734 23.9887 3.84708 23.9887C3.98681 23.9887 4.07999 23.942 4.17311 23.8487C4.3594 23.6622 4.3594 23.3823 4.17311 23.1957L3.39572 22.4172L15.3766 8.99415L17.3329 10.9532L15.4107 13.1067C15.3558 13.13 15.3072 13.1656 15.2589 13.2141L13.3957 15.313C13.3425 15.3663 13.3051 15.4273 13.2823 15.4914L3.24163 26.7406ZM14.421 15.6401L15.6957 14.2113L18.7056 17.2254C19.544 18.1116 20.9879 19.231 23.084 20.6303C22.8045 20.7236 22.525 20.8636 22.2456 21.0501C21.6677 21.4118 21.2584 21.914 20.9732 22.4691C20.969 22.477 20.9651 22.4851 20.961 22.4931C20.9441 22.5265 20.9276 22.5601 20.9115 22.5938C20.8885 22.6417 20.8667 22.69 20.8458 22.7389C20.8315 22.772 20.8173 22.805 20.8038 22.8383C20.8019 22.8431 20.8 22.848 20.7981 22.8528C20.7834 22.8893 20.7688 22.9258 20.7551 22.9625C20.4905 22.5739 20.236 22.2072 19.9912 21.8618L20.6153 21.2367C20.8016 21.0502 20.8016 20.7703 20.6153 20.5837C20.4291 20.3972 20.1496 20.3972 19.9632 20.5837L19.444 21.1037C19.2504 20.8407 19.0635 20.5926 18.8831 20.3593L19.3112 19.9307C19.4975 19.7441 19.4975 19.4643 19.3112 19.2777C19.1249 19.0911 18.8454 19.0911 18.6591 19.2777L18.3035 19.6337C17.9611 19.2206 17.6454 18.8689 17.3549 18.578L14.421 15.6401ZM26.9034 24.9682L25.9253 23.289C25.8321 23.1491 25.6924 23.0558 25.5526 23.0558H25.3197C24.2484 22.9625 23.2703 23.5689 22.8045 24.5017L22.7113 24.7349C22.6181 24.8749 22.6181 25.0148 22.7113 25.1547L23.736 26.9272C23.1771 26.8339 22.6647 26.554 22.2455 26.1342C21.7744 25.6231 21.4699 24.9793 21.4412 24.2869C21.4492 24.2528 21.4536 24.2162 21.4536 24.1752C21.4536 23.5843 21.641 23.0311 21.9674 22.5625C22.168 22.283 22.4189 22.0383 22.7113 21.8431C23.177 21.5166 23.6894 21.3767 24.2484 21.3767C24.8073 21.3767 25.3662 21.5632 25.832 21.8898C26.8103 22.5894 27.2295 23.8487 26.9034 24.9682Z" fill="#E3B873"/>
</svg>
