<svg width="34" height="33" viewBox="0 0 34 33" fill="none" xmlns="http://www.w3.org/2000/svg">
<path fill-rule="evenodd" clip-rule="evenodd" d="M4.08026 1.25443C4.08026 1.04353 4.25825 0.872559 4.47781 0.872559H33.101C33.3206 0.872559 33.4986 1.04353 33.4986 1.25443V28.8765C33.4986 29.0874 33.3206 29.2584 33.101 29.2584C32.8815 29.2584 32.7035 29.0874 32.7035 28.8765V1.6363H4.47781C4.25825 1.6363 4.08026 1.46533 4.08026 1.25443Z" fill="white" stroke="white" stroke-width="0.5" stroke-linecap="round" stroke-linejoin="round"/>
<path d="M4.49749 29.4348L4.62249 29.4348L4.62249 29.3098L4.62248 5.55142L6.24574 7.17693C6.44859 7.38007 6.77756 7.38007 6.98041 7.17693C7.18317 6.97389 7.18317 6.64476 6.98041 6.44172L4.47041 3.92822C4.26756 3.72509 3.93859 3.72509 3.73574 3.92822L1.22574 6.44172C1.02298 6.64476 1.02298 6.97389 1.22574 7.17693C1.42859 7.38007 1.75756 7.38007 1.96042 7.17693L3.58367 5.55142L3.58367 29.3098L3.58367 29.4348L3.70867 29.4348L4.49749 29.4348Z" fill="white" stroke="white" stroke-width="0.25"/>
<path d="M25.9256 32.1904L26.0138 32.1019L25.9256 32.1904C26.1292 32.3932 26.4591 32.3932 26.6627 32.1904L29.1858 29.6769C29.3896 29.4738 29.3896 29.1443 29.1858 28.9413L26.6627 26.4278C26.4591 26.2249 26.1292 26.2249 25.9256 26.4278L25.9256 26.4278C25.7217 26.6309 25.7217 26.9603 25.9256 27.1634L27.5575 28.7891L3.7077 28.7891H3.5827V28.9141V29.704V29.829H3.7077L27.5575 29.829L25.9256 31.4547C25.7217 31.6578 25.7217 31.9873 25.9256 32.1904Z" fill="white" stroke="white" stroke-width="0.25"/>
<path fill-rule="evenodd" clip-rule="evenodd" d="M14.9772 0.988239C15.1313 1.14248 15.1313 1.39255 14.9772 1.54679L10.2443 6.28629C10.0903 6.44053 9.84059 6.44053 9.68656 6.28629C9.53254 6.13205 9.53254 5.88197 9.68656 5.72773L14.4195 0.988239C14.5735 0.833998 14.8232 0.833998 14.9772 0.988239Z" fill="white" stroke="white" stroke-width="0.5" stroke-linecap="round" stroke-linejoin="round"/>
<path fill-rule="evenodd" clip-rule="evenodd" d="M33.2516 19.8149C33.4056 19.9691 33.4056 20.2192 33.2516 20.3735L28.9131 24.718C28.7591 24.8722 28.5094 24.8722 28.3553 24.718C28.2013 24.5637 28.2013 24.3137 28.3553 24.1594L32.6938 19.8149C32.8478 19.6607 33.0976 19.6607 33.2516 19.8149Z" fill="white" stroke="white" stroke-width="0.5" stroke-linecap="round" stroke-linejoin="round"/>
<path fill-rule="evenodd" clip-rule="evenodd" d="M20.8916 0.986466C21.0467 1.13972 21.0482 1.38979 20.8952 1.54501L10.6406 11.9456C10.4875 12.1008 10.2378 12.1024 10.0828 11.9491C9.92781 11.7959 9.92622 11.5458 10.0793 11.3906L20.3339 0.990024C20.4869 0.834804 20.7366 0.833211 20.8916 0.986466Z" fill="white" stroke="white" stroke-width="0.5" stroke-linecap="round" stroke-linejoin="round"/>
<path fill-rule="evenodd" clip-rule="evenodd" d="M33.383 13.2316C33.537 13.3859 33.537 13.636 33.383 13.7902L23.3913 23.7958C23.2373 23.95 22.9876 23.95 22.8335 23.7958C22.6795 23.6416 22.6795 23.3915 22.8335 23.2372L32.8252 13.2316C32.9792 13.0774 33.229 13.0774 33.383 13.2316Z" fill="white" stroke="white" stroke-width="0.5" stroke-linecap="round" stroke-linejoin="round"/>
<path fill-rule="evenodd" clip-rule="evenodd" d="M27.2062 1.12209C27.359 1.27757 27.357 1.52764 27.2017 1.68063L10.768 17.8739C10.6128 18.0269 10.363 18.0249 10.2103 17.8694C10.0575 17.7139 10.0595 17.4638 10.2148 17.3109L26.6484 1.11759C26.8037 0.964596 27.0534 0.966613 27.2062 1.12209Z" fill="white" stroke="white" stroke-width="0.5" stroke-linecap="round" stroke-linejoin="round"/>
<path fill-rule="evenodd" clip-rule="evenodd" d="M33.3831 7.04439C33.5371 7.19863 33.5371 7.44871 33.3831 7.60295L16.818 24.1912C16.6639 24.3454 16.4142 24.3454 16.2602 24.1912C16.1061 24.0369 16.1061 23.7869 16.2602 23.6326L32.8253 7.04439C32.9793 6.89015 33.2291 6.89015 33.3831 7.04439Z" fill="white" stroke="white" stroke-width="0.5" stroke-linecap="round" stroke-linejoin="round"/>
<path fill-rule="evenodd" clip-rule="evenodd" d="M33.1201 1.11983C33.2742 1.27407 33.2742 1.52414 33.1201 1.67839L10.5074 24.3226C10.3534 24.4769 10.1037 24.4769 9.94963 24.3226C9.7956 24.1684 9.7956 23.9183 9.94963 23.7641L32.5624 1.11983C32.7164 0.96559 32.9661 0.96559 33.1201 1.11983Z" fill="white" stroke="white" stroke-width="0.5" stroke-linecap="round" stroke-linejoin="round"/>
</svg>
