<?xml version="1.0" encoding="UTF-8" standalone="no"?>
<!-- Created with Inkscape (http://www.inkscape.org/) -->

<svg
   width="64pt"
   height="64pt"
   viewBox="0 0 22.577778 22.577778"
   version="1.1"
   id="svg831"
   inkscape:version="1.1.1 (3bf5ae0d25, 2021-09-20)"
   sodipodi:docname="Ex.svg"
   inkscape:export-filename="C:\Users\User\Desktop\CARLOS PROJECT\4. APRIL 1\Done\7 - Pea.png"
   inkscape:export-xdpi="576"
   inkscape:export-ydpi="576"
   xmlns:inkscape="http://www.inkscape.org/namespaces/inkscape"
   xmlns:sodipodi="http://sodipodi.sourceforge.net/DTD/sodipodi-0.dtd"
   xmlns="http://www.w3.org/2000/svg"
   xmlns:svg="http://www.w3.org/2000/svg"
   xmlns:rdf="http://www.w3.org/1999/02/22-rdf-syntax-ns#"
   xmlns:cc="http://creativecommons.org/ns#"
   xmlns:dc="http://purl.org/dc/elements/1.1/">
  <defs
     id="defs825">
    <pattern
       id="EMFhbasepattern"
       patternUnits="userSpaceOnUse"
       width="6"
       height="6"
       x="0"
       y="0" />
    <pattern
       id="EMFhbasepattern-9"
       patternUnits="userSpaceOnUse"
       width="6"
       height="6"
       x="0"
       y="0" />
    <pattern
       id="EMFhbasepattern-0"
       patternUnits="userSpaceOnUse"
       width="6"
       height="6"
       x="0"
       y="0" />
    <pattern
       id="EMFhbasepattern-7"
       patternUnits="userSpaceOnUse"
       width="6"
       height="6"
       x="0"
       y="0" />
    <pattern
       id="EMFhbasepattern-2"
       patternUnits="userSpaceOnUse"
       width="6"
       height="6"
       x="0"
       y="0" />
    <pattern
       id="EMFhbasepattern-98"
       patternUnits="userSpaceOnUse"
       width="6"
       height="6"
       x="0"
       y="0" />
    <pattern
       id="EMFhbasepattern-6"
       patternUnits="userSpaceOnUse"
       width="6"
       height="6"
       x="0"
       y="0" />
    <pattern
       id="EMFhbasepattern-01"
       patternUnits="userSpaceOnUse"
       width="6"
       height="6"
       x="0"
       y="0" />
    <pattern
       id="EMFhbasepattern-07"
       patternUnits="userSpaceOnUse"
       width="6"
       height="6"
       x="0"
       y="0" />
    <pattern
       id="EMFhbasepattern-8"
       patternUnits="userSpaceOnUse"
       width="6"
       height="6"
       x="0"
       y="0" />
    <pattern
       id="EMFhbasepattern-4"
       patternUnits="userSpaceOnUse"
       width="6"
       height="6"
       x="0"
       y="0" />
    <pattern
       id="EMFhbasepattern-40"
       patternUnits="userSpaceOnUse"
       width="6"
       height="6"
       x="0"
       y="0" />
    <pattern
       id="EMFhbasepattern-08"
       patternUnits="userSpaceOnUse"
       width="6"
       height="6"
       x="0"
       y="0" />
    <pattern
       id="EMFhbasepattern-04"
       patternUnits="userSpaceOnUse"
       width="6"
       height="6"
       x="0"
       y="0" />
    <pattern
       id="EMFhbasepattern-014"
       patternUnits="userSpaceOnUse"
       width="6"
       height="6"
       x="0"
       y="0" />
    <pattern
       id="EMFhbasepattern-27"
       patternUnits="userSpaceOnUse"
       width="6"
       height="6"
       x="0"
       y="0" />
    <pattern
       id="EMFhbasepattern-09"
       patternUnits="userSpaceOnUse"
       width="6"
       height="6"
       x="0"
       y="0" />
    <pattern
       id="EMFhbasepattern-5"
       patternUnits="userSpaceOnUse"
       width="6"
       height="6"
       x="0"
       y="0" />
    <pattern
       id="EMFhbasepattern-018"
       patternUnits="userSpaceOnUse"
       width="6"
       height="6"
       x="0"
       y="0" />
  </defs>
  <sodipodi:namedview
     id="base"
     pagecolor="#ffffff"
     bordercolor="#666666"
     borderopacity="1.0"
     inkscape:pageopacity="0.0"
     inkscape:pageshadow="2"
     inkscape:zoom="6.4882571"
     inkscape:cx="31.749667"
     inkscape:cy="42.615451"
     inkscape:document-units="pt"
     inkscape:current-layer="layer1"
     showgrid="false"
     units="pt"
     inkscape:window-width="1920"
     inkscape:window-height="1001"
     inkscape:window-x="-9"
     inkscape:window-y="-9"
     inkscape:window-maximized="1"
     inkscape:pagecheckerboard="true"
     inkscape:showpageshadow="false"
     inkscape:object-paths="true"
     inkscape:snap-intersection-paths="true"
     inkscape:snap-smooth-nodes="true"
     inkscape:snap-midpoints="true"
     showguides="true"
     inkscape:snap-bbox="true"
     inkscape:bbox-nodes="true"
     inkscape:snap-nodes="false"
     inkscape:snap-global="true"
     inkscape:lockguides="true">
    <inkscape:grid
       type="xygrid"
       id="grid1378" />
    <sodipodi:guide
       position="0.97013831,21.607643"
       orientation="78.000048,0"
       id="guide1380"
       inkscape:locked="true" />
    <sodipodi:guide
       position="0.97013831,0.97013129"
       orientation="0,78.000005"
       id="guide1382"
       inkscape:locked="true" />
    <sodipodi:guide
       position="21.607639,0.97013129"
       orientation="-78.000048,0"
       id="guide1384"
       inkscape:locked="true" />
    <sodipodi:guide
       position="21.607639,21.607643"
       orientation="0,-78.000005"
       id="guide1386"
       inkscape:locked="true" />
  </sodipodi:namedview>
  <metadata
     id="metadata828">
    <rdf:RDF>
      <cc:Work
         rdf:about="">
        <dc:format>image/svg+xml</dc:format>
        <dc:type
           rdf:resource="http://purl.org/dc/dcmitype/StillImage" />
      </cc:Work>
    </rdf:RDF>
  </metadata>
  <g
     inkscape:label="Icon"
     inkscape:groupmode="layer"
     id="layer1"
     transform="translate(0,-274.42223)">
    <g
       id="g10735"
       style="display:inline;stroke-width:0.800121"
       transform="matrix(1.2498108,0,0,1.2498108,-0.33198734,-74.891498)">
      <g
         id="g176786"
         style="stroke-width:0.800121">
        <path
           style="color:#000000;fill:#b557a1;fill-opacity:1;stroke-width:0.800121;stroke-linecap:round;stroke-linejoin:round;-inkscape-stroke:none"
           d="m 7.0410156,287.63281 c -1.5608177,-0.0997 -3.1715527,0.60519 -4.0039062,2.04688 -0.030647,0.0531 -0.060062,0.10635 -0.088206,0.1596 0.1397774,0.20613 0.00272,0.38479 -0.039208,0.47853 l 7.0275372,4.04656 c 0.04047,-0.0574 0.2150194,-0.20623 0.2846994,-0.21498 0.06571,-0.10002 0.130085,-0.20407 0.192131,-0.31154 0.847807,-1.46844 0.603449,-3.15848 -0.408203,-4.45508 z"
           id="path131352"
           sodipodi:nodetypes="csccccccc" />
        <path
           id="path174359"
           style="color:#000000;fill:#994c88;fill-opacity:1;stroke-width:0.800121;stroke-linecap:round;stroke-linejoin:round;-inkscape-stroke:none"
           d="m 9.476597,289.38288 c 1.011996,1.2966 1.255878,2.98658 0.4077271,4.45502 -0.062046,0.10747 -0.1260096,0.21159 -0.1917194,0.31161 l 0.5295103,2e-5 c 0.06571,-0.10002 0.129674,-0.20414 0.19172,-0.31161 0.847807,-1.46844 0.603925,-3.15842 -0.407727,-4.45502 z"
           sodipodi:nodetypes="ccccccc" />
        <path
           id="path153524"
           style="fill:#994c88;fill-opacity:1;stroke-width:3.02408;stroke-linecap:round;stroke-linejoin:round"
           d="m 26.611328,28.595703 c -0.84359,-0.05389 -1.691051,-0.04239 -2.533203,0.02734 -0.02397,1.710703 0.490643,3.408627 1.832031,4.75 1.142793,1.142816 2.602072,2.037103 4.289063,2.40625 0.699163,0.153119 1.453447,0.200073 2.21289,0.117187 0.906325,1.009425 2.112725,1.791062 3.502039,2.120746 1.389315,0.329685 2.592925,0.41138 3.81437,0.246435 -0.518799,-1.063203 -1.156814,-2.087202 -1.910157,-3.052734 l 2.029297,-4.902344 z"
           transform="matrix(0.26458334,0,0,0.26458334,0,280.06666)"
           sodipodi:nodetypes="cccccccccc" />
        <path
           style="color:#000000;fill:#50b86b;fill-opacity:1;stroke-width:0.800121;stroke-linecap:round;stroke-linejoin:round;-inkscape-stroke:none"
           d="m 14.339849,282.51949 c -3e-6,-1.23929 -1.010718,-2.24999 -2.172699,-2.24998 -1.161981,2e-5 -1.952666,0.83399 -2.1749625,1.88088 -0.881984,-0.7742 -2.2133441,-0.78861 -3.0546875,0.0527 -0.8271173,0.82713 -0.8038302,2.12452 -0.042969,3.01172 -0.2291249,0.54791 -0.1909714,1.17372 0.1347657,1.70508 -0.2473625,0.52316 -0.207347,1.15398 0.2207031,1.58203 0.2361407,0.23614 0.5342451,0.41518 0.859375,0.48633 0.3251299,0.0712 0.6909727,0.0233 0.9765625,-0.21289 z"
           id="path3694"
           sodipodi:nodetypes="ccccccsccc" />
        <path
           id="path151797"
           style="fill:#349951;fill-opacity:1;stroke-width:3.02408;stroke-linecap:round;stroke-linejoin:round"
           d="m 42.070312,15.634766 c -4.602694,0.980742 -7.239046,4.247336 -7.863281,8.103515 -3.39521,1.871048 -4.558554,6.377556 -3.111328,10.056641 1.108851,0.139139 2.293508,-0.09466 3.244141,-0.88086 0.03671,-0.02943 0.0713,-0.06141 0.103515,-0.0957 l 19.31836,-21.236328 c 0.117587,-0.129676 0.199078,-0.287943 0.236328,-0.458984 0.133644,-0.598413 0.199181,-1.215317 0.199219,-1.8515626 -10e-7,-0.4466479 -0.03465,-0.8860805 -0.101563,-1.3144532 C 48.981652,7.5383713 43.584142,11.212116 42.070312,15.634766 Z"
           transform="matrix(0.26458334,0,0,0.26458334,0,280.06666)"
           sodipodi:nodetypes="cccccccccc" />
        <path
           style="color:#000000;fill:#50b86b;stroke-width:0.800121;stroke-linecap:round;stroke-linejoin:round;-inkscape-stroke:none"
           d="m 14.753906,282.7832 c -1.384893,-0.37108 -2.761976,0.44964 -3.246093,1.81446 -1.185486,0.26876 -1.8192864,1.02517 -1.9687505,2.03906 -0.3869829,0.23618 -0.748222,0.53748 -0.8710937,0.99609 -0.1111009,0.41464 -0.095346,0.84346 0.066406,1.21094 0.1617521,0.36748 0.482225,0.66786 0.9199219,0.78516 0.00643,0.002 0.012946,0.004 0.019531,0.006 0.3708423,0.0704 0.7538693,0.0738 1.1152353,-0.0527 0.313537,-0.10978 0.579338,-0.37072 0.80664,-0.69141 0.774122,0.0344 1.47458,-0.31966 1.914063,-0.91015 1.403461,0.28637 2.796452,-0.48992 3.166015,-1.86914 0.387526,-1.44628 -0.475614,-2.9406 -1.921875,-3.32813 z"
           id="path143036"
           sodipodi:nodetypes="ccccscccccccc" />
        <path
           style="color:#000000;fill:#349951;fill-opacity:1;stroke-width:0.800121;stroke-linecap:round;stroke-linejoin:round;-inkscape-stroke:none"
           d="m 14.755859,285.0293 c -1.892579,0.45415 -3.52391,1.55695 -5.0253902,2.90234 a 0.2645835,0.2645835 0 0 0 -0.021484,0.37305 0.2645835,0.2645835 0 0 0 0.3730462,0.0215 c 1.466474,-1.31402 3.02648,-2.35642 4.796875,-2.78125 a 0.2645835,0.2645835 0 0 0 0.195313,-0.32031 0.2645835,0.2645835 0 0 0 -0.31836,-0.19531 z"
           id="path3181" />
        <path
           style="color:#000000;fill:#349951;stroke-width:0.800121;stroke-linecap:round;stroke-linejoin:round;-inkscape-stroke:none"
           d="m 8.2285156,282.95312 a 0.2645835,0.2645835 0 0 0 -0.1796875,0.32813 c 0.2619179,0.88388 0.3193866,1.80802 0.2441407,2.76172 a 0.2645835,0.2645835 0 0 0 0.2441406,0.28515 0.2645835,0.2645835 0 0 0 0.2832031,-0.24218 c 0.07903,-1.00166 0.020759,-1.99523 -0.2636719,-2.95508 a 0.2645835,0.2645835 0 0 0 -0.328125,-0.17774 z"
           id="path3696" />
        <path
           id="path7811"
           style="color:#000000;fill:#994c88;fill-opacity:1;stroke-width:3.02408;stroke-linecap:round;stroke-linejoin:round;-inkscape-stroke:none"
           d="m 21.886719,33.41605 c -0.329151,0.441016 -0.240121,1.065099 0.199219,1.396484 0.856898,0.643049 1.817275,1.309399 2.835937,1.970703 0.462527,0.297629 1.07859,0.165865 1.378906,-0.294922 0.298956,-0.462923 0.167064,-1.080457 -0.294922,-1.380859 -0.986669,-0.640551 -1.904242,-1.280908 -2.716797,-1.890659 -0.521891,-0.350001 -0.965506,-0.252626 -1.402343,0.199253 z m -5.898438,1.218716 C 15.51499,34.915145 15.357034,35.525151 15.634766,36 c 0.680718,1.153361 1.985485,2.294321 3.699218,3.580078 0.442026,0.333141 1.070587,0.243847 1.402344,-0.199219 0.33314,-0.442026 0.243846,-1.070586 -0.199219,-1.402343 -1.625364,-1.219427 -2.828593,-2.397908 -3.18164,-2.996094 -0.367602,-0.604193 -0.940048,-0.546263 -1.367188,-0.347656 z m 13.40625,3.683593 c -0.265016,0.484846 -0.08659,1.092732 0.398438,1.357422 0.56014,0.305764 1.118836,0.602347 1.675781,0.886719 0.491394,0.250104 1.092508,0.05527 1.34375,-0.435547 0.250104,-0.491394 0.05527,-1.092508 -0.435547,-1.34375 -0.54109,-0.276283 -1.087618,-0.566664 -1.630859,-0.863281 -0.605263,-0.273035 -1.085944,-0.02284 -1.351563,0.398437 z m -4.392578,3.824222 c -0.275082,0.478932 -0.109808,1.090182 0.369141,1.365234 1.104066,0.637494 2.22882,1.247134 3.34375,1.816407 0.493295,0.255409 1.100211,0.05983 1.351562,-0.435547 0.250104,-0.491394 0.05527,-1.092508 -0.435547,-1.34375 -1.081138,-0.552038 -2.187372,-1.150055 -3.263671,-1.771484 -0.537613,-0.281025 -1.074714,-0.06648 -1.365235,0.36914 z m 7.935547,4.074216 c -0.19932,0.513975 0.0549,1.092313 0.568359,1.292969 0.493244,0.191622 0.970434,0.36588 1.425782,0.515625 0.525914,0.171692 1.091298,-0.116252 1.261718,-0.642579 0.171693,-0.525913 -0.116251,-1.091298 -0.642578,-1.261718 -0.416179,-0.136819 -0.855317,-0.291617 -1.320312,-0.472656 -0.569496,-0.165818 -1.043515,0.03912 -1.292969,0.568359 z"
           transform="matrix(0.26458334,0,0,0.26458334,0,280.06666)"
           sodipodi:nodetypes="ccccccccccccccccccccccccccccccccccc" />
        <path
           style="color:#000000;fill:#e2f0fa;fill-opacity:1;stroke-width:0.800121;stroke-linecap:round;stroke-linejoin:round;-inkscape-stroke:none"
           d="m 2.8106817,290.12284 c -0.7378334,1.64929 -0.4445927,3.52218 0.8909016,4.74648 -0.1631312,0.25769 -0.279469,0.39129 -0.4439004,0.45889 -0.179673,0.0739 -0.4884167,0.086 -1.0681519,-0.0294 -0.091438,-0.0216 -0.1948032,-0.003 -0.2656169,0.0469 -0.112954,0.0932 -0.128704,0.26045 -0.03514,0.37311 0.6163303,0.74916 1.3087285,1.08106 1.964738,1.06246 0.6403973,-0.0182 1.2121841,-0.3591 1.6443442,-0.85059 1.7228492,0.6078 3.4933159,-0.0857 4.6022277,-1.60249 0.06156,-0.0869 0.09155,-0.13499 0.137326,-0.20249 -0.3717586,-0.33622 -0.6791672,-0.41545 -1.1867993,-0.44605 -0.2293014,0.004 -0.4666356,-0.13106 -0.5839436,-0.33021 -0.3608055,-0.61255 -0.986489,-0.9733 -1.697054,-0.9803 -0.2318774,-0.002 -0.4763302,-0.14272 -0.5937623,-0.3421 -0.3608051,-0.61253 -0.9870027,-0.9733 -1.6975709,-0.9803 -0.2316168,-0.002 -0.4692124,-0.14122 -0.5798096,-0.34158 -0.2669072,-0.43648 -0.5674101,-0.64541 -0.9493165,-0.86635 -0.054634,0.0913 -0.097438,0.1873 -0.1384721,0.28402 z"
           id="path129514"
           sodipodi:nodetypes="cccccccccccccccccc" />
        <path
           id="path171981"
           style="color:#000000;fill:#c8dae5;fill-opacity:1;stroke-width:3.02408;stroke-linecap:round;stroke-linejoin:round;-inkscape-stroke:none"
           d="m 37.230469,52.111328 c -2.688377,4.761427 -6.631839,7.229735 -12.673828,8.640625 0.670054,0.04204 1.320717,0.04143 1.953125,0.002 0.0052,-3.58e-4 0.01046,3.64e-4 0.01563,0 0.01834,-0.0012 0.03638,-0.0027 0.05469,-0.0039 2.582059,-0.192036 5.061975,-1.102637 7.263672,-2.609375 0.0019,-0.0014 0.0039,-0.0026 0.0059,-0.0039 0.03087,-0.02114 0.06104,-0.04307 0.0918,-0.06445 1.794294,-1.287965 3.366883,-2.976396 4.751953,-4.935547 -0.503196,-0.455093 -0.976151,-0.783277 -1.46289,-1.025391 z"
           transform="matrix(0.26458334,0,0,0.26458334,0,280.06666)" />
      </g>
    </g>
  </g>
</svg>
