<?xml version="1.0" encoding="UTF-8" standalone="no"?>
<svg
   xmlns:dc="http://purl.org/dc/elements/1.1/"
   xmlns:cc="http://creativecommons.org/ns#"
   xmlns:rdf="http://www.w3.org/1999/02/22-rdf-syntax-ns#"
   xmlns:svg="http://www.w3.org/2000/svg"
   xmlns="http://www.w3.org/2000/svg"
   xmlns:sodipodi="http://sodipodi.sourceforge.net/DTD/sodipodi-0.dtd"
   xmlns:inkscape="http://www.inkscape.org/namespaces/inkscape"
   inkscape:export-ydpi="576"
   inkscape:export-xdpi="576"
   inkscape:export-filename="E:\Project\27-3-2022\4 - Icon-Icons\016 - Vegetables\Send\3 - Flat\21 - Lettuce.png"
   sodipodi:docname="21 - Lettuce.svg"
   inkscape:version="1.0 (4035a4fb49, 2020-05-01)"
   id="svg831"
   version="1.1"
   viewBox="0 0 22.577778 22.577778"
   height="64pt"
   width="64pt">
  <defs
     id="defs825">
    <pattern
       y="0"
       x="0"
       height="6"
       width="6"
       patternUnits="userSpaceOnUse"
       id="EMFhbasepattern" />
    <pattern
       y="0"
       x="0"
       height="6"
       width="6"
       patternUnits="userSpaceOnUse"
       id="EMFhbasepattern-9" />
    <pattern
       y="0"
       x="0"
       height="6"
       width="6"
       patternUnits="userSpaceOnUse"
       id="EMFhbasepattern-0" />
    <pattern
       y="0"
       x="0"
       height="6"
       width="6"
       patternUnits="userSpaceOnUse"
       id="EMFhbasepattern-7" />
    <pattern
       y="0"
       x="0"
       height="6"
       width="6"
       patternUnits="userSpaceOnUse"
       id="EMFhbasepattern-2" />
    <pattern
       y="0"
       x="0"
       height="6"
       width="6"
       patternUnits="userSpaceOnUse"
       id="EMFhbasepattern-98" />
    <pattern
       y="0"
       x="0"
       height="6"
       width="6"
       patternUnits="userSpaceOnUse"
       id="EMFhbasepattern-6" />
    <pattern
       y="0"
       x="0"
       height="6"
       width="6"
       patternUnits="userSpaceOnUse"
       id="EMFhbasepattern-01" />
    <pattern
       y="0"
       x="0"
       height="6"
       width="6"
       patternUnits="userSpaceOnUse"
       id="EMFhbasepattern-07" />
    <pattern
       y="0"
       x="0"
       height="6"
       width="6"
       patternUnits="userSpaceOnUse"
       id="EMFhbasepattern-8" />
    <pattern
       y="0"
       x="0"
       height="6"
       width="6"
       patternUnits="userSpaceOnUse"
       id="EMFhbasepattern-4" />
    <pattern
       y="0"
       x="0"
       height="6"
       width="6"
       patternUnits="userSpaceOnUse"
       id="EMFhbasepattern-40" />
    <pattern
       y="0"
       x="0"
       height="6"
       width="6"
       patternUnits="userSpaceOnUse"
       id="EMFhbasepattern-08" />
    <pattern
       y="0"
       x="0"
       height="6"
       width="6"
       patternUnits="userSpaceOnUse"
       id="EMFhbasepattern-04" />
    <pattern
       y="0"
       x="0"
       height="6"
       width="6"
       patternUnits="userSpaceOnUse"
       id="EMFhbasepattern-014" />
    <pattern
       y="0"
       x="0"
       height="6"
       width="6"
       patternUnits="userSpaceOnUse"
       id="EMFhbasepattern-27" />
    <pattern
       y="0"
       x="0"
       height="6"
       width="6"
       patternUnits="userSpaceOnUse"
       id="EMFhbasepattern-09" />
    <pattern
       y="0"
       x="0"
       height="6"
       width="6"
       patternUnits="userSpaceOnUse"
       id="EMFhbasepattern-5" />
    <pattern
       y="0"
       x="0"
       height="6"
       width="6"
       patternUnits="userSpaceOnUse"
       id="EMFhbasepattern-018" />
  </defs>
  <sodipodi:namedview
     inkscape:document-rotation="0"
     inkscape:snap-global="true"
     inkscape:snap-nodes="false"
     inkscape:bbox-nodes="true"
     inkscape:snap-bbox="true"
     showguides="false"
     inkscape:snap-midpoints="true"
     inkscape:snap-smooth-nodes="true"
     inkscape:snap-intersection-paths="true"
     inkscape:object-paths="true"
     inkscape:showpageshadow="false"
     inkscape:pagecheckerboard="true"
     inkscape:window-maximized="1"
     inkscape:window-y="-8"
     inkscape:window-x="-8"
     inkscape:window-height="716"
     inkscape:window-width="1366"
     units="pt"
     showgrid="false"
     inkscape:current-layer="layer1"
     inkscape:document-units="pt"
     inkscape:cy="42.666667"
     inkscape:cx="31.336514"
     inkscape:zoom="5.2073436"
     inkscape:pageshadow="2"
     inkscape:pageopacity="0.0"
     borderopacity="1.0"
     bordercolor="#666666"
     pagecolor="#ffffff"
     id="base">
    <inkscape:grid
       id="grid1378"
       type="xygrid" />
    <sodipodi:guide
       inkscape:locked="false"
       id="guide1380"
       orientation="78.000048,0"
       position="0.97013831,21.607643" />
    <sodipodi:guide
       inkscape:locked="false"
       id="guide1382"
       orientation="0,78.000005"
       position="0.97013831,0.97013129" />
    <sodipodi:guide
       inkscape:locked="false"
       id="guide1384"
       orientation="-78.000048,0"
       position="21.607639,0.97013129" />
    <sodipodi:guide
       inkscape:locked="false"
       id="guide1386"
       orientation="0,-78.000005"
       position="21.607639,21.607643" />
  </sodipodi:namedview>
  <metadata
     id="metadata828">
    <rdf:RDF>
      <cc:Work
         rdf:about="">
        <dc:format>image/svg+xml</dc:format>
        <dc:type
           rdf:resource="http://purl.org/dc/dcmitype/StillImage" />
        <dc:title></dc:title>
      </cc:Work>
    </rdf:RDF>
  </metadata>
  <g
     transform="translate(0,-274.42223)"
     id="layer1"
     inkscape:groupmode="layer"
     inkscape:label="Icon">
    <g
       transform="matrix(1.2543034,0,0,1.2543034,0.6708918,-152.71741)"
       style="display:inline;stroke-width:0.797255"
       id="g2348">
      <path
         sodipodi:nodetypes="ccccccccccccccccc"
         id="path1630"
         d="m 12.590899,355.08865 c 0.197998,-0.0273 0.397325,-0.0723 0.594747,-0.14358 0.447211,-0.16164 0.823221,-0.43368 1.64358,-1.10641 1.489133,-0.67616 2.006936,-1.70362 1.672877,-2.62789 -0.334314,-0.92449 -1.389015,-1.38426 -2.337891,-1.04102 l -1.5e-4,1.7e-4 c -0.04405,0.0158 -0.08608,0.0327 -0.126953,0.0508 -0.356653,0.15415 -0.75053,0.19681 -1.1289,0.12305 -0.435501,-0.0747 -0.896591,-0.0444 -1.343744,0.11719 l -1.589845,0.40801 -3.3105469,2.1582 c -0.066268,0.0428 -0.1099554,0.11303 -0.1191406,0.19141 0,0 -0.2223365,1.80937 0.9472656,3.00195 0.014673,0.0149 0.031063,0.028 0.048828,0.0391 0.7451825,0.46725 1.7072713,0.59185 2.6152349,0.26367 0.483329,-0.17476 0.89677,-0.45757 1.21975,-0.81155 0.311573,-0.34623 0.7449,-0.56908 1.214888,-0.6231 z"
         style="color:#000000;font-style:normal;font-variant:normal;font-weight:normal;font-stretch:normal;font-size:medium;line-height:normal;font-family:sans-serif;font-variant-ligatures:normal;font-variant-position:normal;font-variant-caps:normal;font-variant-numeric:normal;font-variant-alternates:normal;font-variant-east-asian:normal;font-feature-settings:normal;font-variation-settings:normal;text-indent:0;text-align:start;text-decoration:none;text-decoration-line:none;text-decoration-style:solid;text-decoration-color:#000000;letter-spacing:normal;word-spacing:normal;text-transform:none;writing-mode:lr-tb;direction:ltr;text-orientation:mixed;dominant-baseline:auto;baseline-shift:baseline;text-anchor:start;white-space:normal;shape-padding:0;shape-margin:0;inline-size:0;clip-rule:evenodd;display:inline;overflow:visible;visibility:visible;isolation:auto;mix-blend-mode:normal;color-interpolation:sRGB;color-interpolation-filters:linearRGB;solid-color:#000000;solid-opacity:1;vector-effect:none;fill:#50b86b;fill-opacity:1;fill-rule:evenodd;stroke:none;stroke-width:0.421881;stroke-linecap:round;stroke-linejoin:round;stroke-miterlimit:1.5;stroke-dasharray:none;stroke-dashoffset:0;stroke-opacity:1;color-rendering:auto;image-rendering:auto;shape-rendering:auto;text-rendering:auto;enable-background:accumulate;stop-color:#000000" />
      <path
         sodipodi:nodetypes="cccccccccccccccccc"
         id="path1612"
         d="m 4.3896471,342.61036 c -0.1281991,0.43936 -0.3483467,0.77324 -0.6455092,1.01466 -0.3397407,0.28029 -0.6137538,0.65631 -0.7753906,1.10352 -0.071366,0.19754 -0.1162542,0.39688 -0.1425781,0.59179 -6.738e-4,0.002 -0.00132,0.004 -0.00195,0.006 -0.053078,0.46708 -0.2758745,0.90037 -0.6210938,1.21094 -2.5e-6,6.7e-4 -2.5e-6,0.001 0,0.002 -0.3531006,0.32183 -0.6377478,0.73546 -0.8125,1.21875 -0.3649221,1.00951 -0.1696972,2.08658 0.4335938,2.85742 0.02089,0.0268 0.046752,0.0494 0.076172,0.0664 0.7334967,0.42348 1.4622992,0.55629 2.1738282,0.47656 0.7115289,-0.0797 1.4017811,-0.36385 2.1035156,-0.75 0.061252,-0.0333 0.1068756,-0.0895 0.1269531,-0.15625 l 1.1503906,-3.90234 c 0.1616339,-0.44721 0.1919415,-0.90845 0.1162125,-1.34284 -0.074706,-0.37751 -0.032066,-0.77331 0.1474624,-1.19246 0.3683098,-1.01133 -0.091159,-2.06607 -1.0156269,-2.40042 -0.9242738,-0.3341 -1.9517049,0.18201 -2.3134796,1.19627 z"
         style="color:#000000;font-style:normal;font-variant:normal;font-weight:normal;font-stretch:normal;font-size:medium;line-height:normal;font-family:sans-serif;font-variant-ligatures:normal;font-variant-position:normal;font-variant-caps:normal;font-variant-numeric:normal;font-variant-alternates:normal;font-variant-east-asian:normal;font-feature-settings:normal;font-variation-settings:normal;text-indent:0;text-align:start;text-decoration:none;text-decoration-line:none;text-decoration-style:solid;text-decoration-color:#000000;letter-spacing:normal;word-spacing:normal;text-transform:none;writing-mode:lr-tb;direction:ltr;text-orientation:mixed;dominant-baseline:auto;baseline-shift:baseline;text-anchor:start;white-space:normal;shape-padding:0;shape-margin:0;inline-size:0;clip-rule:evenodd;display:inline;overflow:visible;visibility:visible;isolation:auto;mix-blend-mode:normal;color-interpolation:sRGB;color-interpolation-filters:linearRGB;solid-color:#000000;solid-opacity:1;vector-effect:none;fill:#50b86b;fill-opacity:1;fill-rule:evenodd;stroke:none;stroke-width:0.421881;stroke-linecap:round;stroke-linejoin:round;stroke-miterlimit:1.5;stroke-dasharray:none;stroke-dashoffset:0;stroke-opacity:1;color-rendering:auto;image-rendering:auto;shape-rendering:auto;text-rendering:auto;enable-background:accumulate;stop-color:#000000" />
      <path
         transform="matrix(0.26458334,0,0,0.26458334,0,280.06666)"
         d="m 28.734375,247.85547 c -0.371136,0.45364 -0.717298,0.91527 -1.023437,1.38672 a 2.1826329,2.1826329 0 0 0 -0.0293,0.043 c -0.843167,1.36743 -2.171961,2.38916 -3.667969,2.84179 a 2.1826329,2.1826329 0 0 0 -0.0078,0.008 c -2.332573,0.72264 -4.539017,2.01559 -6.384765,3.86132 -3.487575,3.48759 -4.998723,8.24055 -4.417969,12.75391 0.736083,0.0419 1.467843,0.0249 2.195313,-0.0566 2.689243,-0.30123 5.298947,-1.37452 7.951171,-2.83398 0.231504,-0.12586 0.402633,-0.33952 0.478516,-0.5918 l 4.347656,-14.74805 c 0.318353,-0.88082 0.4963,-1.7763 0.558594,-2.66406 z"
         style="color:#000000;font-style:normal;font-variant:normal;font-weight:normal;font-stretch:normal;font-size:medium;line-height:normal;font-family:sans-serif;font-variant-ligatures:normal;font-variant-position:normal;font-variant-caps:normal;font-variant-numeric:normal;font-variant-alternates:normal;font-variant-east-asian:normal;font-feature-settings:normal;font-variation-settings:normal;text-indent:0;text-align:start;text-decoration:none;text-decoration-line:none;text-decoration-style:solid;text-decoration-color:#000000;letter-spacing:normal;word-spacing:normal;text-transform:none;writing-mode:lr-tb;direction:ltr;text-orientation:mixed;dominant-baseline:auto;baseline-shift:baseline;text-anchor:start;white-space:normal;shape-padding:0;shape-margin:0;inline-size:0;clip-rule:evenodd;display:inline;overflow:visible;visibility:visible;isolation:auto;mix-blend-mode:normal;color-interpolation:sRGB;color-interpolation-filters:linearRGB;solid-color:#000000;solid-opacity:1;vector-effect:none;fill:#349951;fill-opacity:1;fill-rule:evenodd;stroke:none;stroke-width:1.59451;stroke-linecap:round;stroke-linejoin:round;stroke-miterlimit:1.5;stroke-dasharray:none;stroke-dashoffset:0;stroke-opacity:1;color-rendering:auto;image-rendering:auto;shape-rendering:auto;text-rendering:auto;enable-background:accumulate;stop-color:#000000"
         id="path2288" />
      <path
         transform="matrix(0.26458334,0,0,0.26458334,0,280.06666)"
         d="m 46.474609,265.49609 c -0.922173,0.0555 -1.850623,0.22989 -2.765625,0.56055 l -6.009765,1.54297 -12.511719,8.15625 c -0.250462,0.16176 -0.416456,0.42837 -0.451172,0.72461 0,0 -0.236075,1.98279 0.226563,4.51172 4.675528,0.7839 9.688731,-0.71018 13.320312,-4.3418 1.842346,-1.84237 3.147474,-4.05072 3.853516,-6.4082 v -0.006 c 0.456034,-1.49934 1.475705,-2.81849 2.833984,-3.6543 0.520398,-0.31807 1.019221,-0.6889 1.503906,-1.08594 z"
         style="color:#000000;font-style:normal;font-variant:normal;font-weight:normal;font-stretch:normal;font-size:medium;line-height:normal;font-family:sans-serif;font-variant-ligatures:normal;font-variant-position:normal;font-variant-caps:normal;font-variant-numeric:normal;font-variant-alternates:normal;font-variant-east-asian:normal;font-feature-settings:normal;font-variation-settings:normal;text-indent:0;text-align:start;text-decoration:none;text-decoration-line:none;text-decoration-style:solid;text-decoration-color:#000000;letter-spacing:normal;word-spacing:normal;text-transform:none;writing-mode:lr-tb;direction:ltr;text-orientation:mixed;dominant-baseline:auto;baseline-shift:baseline;text-anchor:start;white-space:normal;shape-padding:0;shape-margin:0;inline-size:0;clip-rule:evenodd;display:inline;overflow:visible;visibility:visible;isolation:auto;mix-blend-mode:normal;color-interpolation:sRGB;color-interpolation-filters:linearRGB;solid-color:#000000;solid-opacity:1;vector-effect:none;fill:#349951;fill-opacity:1;fill-rule:evenodd;stroke:none;stroke-width:1.59451;stroke-linecap:round;stroke-linejoin:round;stroke-miterlimit:1.5;stroke-dasharray:none;stroke-dashoffset:0;stroke-opacity:1;color-rendering:auto;image-rendering:auto;shape-rendering:auto;text-rendering:auto;enable-background:accumulate;stop-color:#000000"
         id="path2285" />
      <path
         d="m 6.1774008,341.31357 c -0.4859469,-0.0144 -0.9594498,0.18446 -1.315682,0.54363 0.2579759,-0.032 0.5242292,-0.007 0.782898,0.0863 0.9244678,0.33435 1.3842685,1.38905 1.0159586,2.40038 -0.1795284,0.41915 -0.2225006,0.81466 -0.1477945,1.19217 0.075729,0.43439 0.045362,0.89586 -0.116272,1.34307 l -1.1503174,3.90209 c -0.00963,0.032 -0.025695,0.0615 -0.045992,0.0873 0.3254622,-0.1253 0.6505841,-0.2799 0.9777182,-0.45992 0.061252,-0.0333 0.1065297,-0.0898 0.1266072,-0.15658 l 1.1503174,-3.90209 c 0.1616339,-0.44721 0.192001,-0.90868 0.116272,-1.34307 -0.074706,-0.37751 -0.031734,-0.77302 0.1477946,-1.19217 0.3683098,-1.01133 -0.091491,-2.06602 -1.0159587,-2.40037 -0.1733013,-0.0626 -0.3500626,-0.0956 -0.5255493,-0.10077 z"
         style="color:#000000;font-style:normal;font-variant:normal;font-weight:normal;font-stretch:normal;font-size:medium;line-height:normal;font-family:sans-serif;font-variant-ligatures:normal;font-variant-position:normal;font-variant-caps:normal;font-variant-numeric:normal;font-variant-alternates:normal;font-variant-east-asian:normal;font-feature-settings:normal;font-variation-settings:normal;text-indent:0;text-align:start;text-decoration:none;text-decoration-line:none;text-decoration-style:solid;text-decoration-color:#000000;letter-spacing:normal;word-spacing:normal;text-transform:none;writing-mode:lr-tb;direction:ltr;text-orientation:mixed;dominant-baseline:auto;baseline-shift:baseline;text-anchor:start;white-space:normal;shape-padding:0;shape-margin:0;inline-size:0;clip-rule:evenodd;display:inline;overflow:visible;visibility:visible;isolation:auto;mix-blend-mode:normal;color-interpolation:sRGB;color-interpolation-filters:linearRGB;solid-color:#000000;solid-opacity:1;vector-effect:none;fill:#349951;fill-opacity:1;fill-rule:evenodd;stroke:none;stroke-width:0.421881;stroke-linecap:round;stroke-linejoin:round;stroke-miterlimit:1.5;stroke-dasharray:none;stroke-dashoffset:0;stroke-opacity:1;color-rendering:auto;image-rendering:auto;shape-rendering:auto;text-rendering:auto;enable-background:accumulate;stop-color:#000000"
         id="path2319" />
      <path
         sodipodi:nodetypes="ccccccccsscccccc"
         d="m 9.4454204,351.92735 1.5900836,-0.40824 c 0.447153,-0.16159 0.908087,-0.19149 1.343588,-0.11679 0.37837,0.0738 0.77196,0.0306 1.128613,-0.12351 0.04087,-0.0181 0.08307,-0.0348 0.127124,-0.0506 0.948876,-0.34324 2.004045,0.11627 2.338359,1.04076 0.08624,0.23862 0.114632,0.48409 0.08527,0.72864 0.519193,-0.55813 0.658338,-1.19367 0.4439,-1.78697 -0.250735,-0.69337 -0.906926,-1.12506 -1.619539,-1.1529 h -6e-6 c -0.237538,-0.009 -0.4816,0.0263 -0.718819,0.11214 -0.04405,0.0158 -0.08625,0.0325 -0.127124,0.0506 -0.356653,0.15415 -0.750244,0.19727 -1.128614,0.1235 -0.435501,-0.0747 -0.896434,-0.0448 -1.343587,0.11679 l -1.5900836,0.40825 z"
         style="color:#000000;font-style:normal;font-variant:normal;font-weight:normal;font-stretch:normal;font-size:medium;line-height:normal;font-family:sans-serif;font-variant-ligatures:normal;font-variant-position:normal;font-variant-caps:normal;font-variant-numeric:normal;font-variant-alternates:normal;font-variant-east-asian:normal;font-feature-settings:normal;font-variation-settings:normal;text-indent:0;text-align:start;text-decoration:none;text-decoration-line:none;text-decoration-style:solid;text-decoration-color:#000000;letter-spacing:normal;word-spacing:normal;text-transform:none;writing-mode:lr-tb;direction:ltr;text-orientation:mixed;dominant-baseline:auto;baseline-shift:baseline;text-anchor:start;white-space:normal;shape-padding:0;shape-margin:0;inline-size:0;clip-rule:evenodd;display:inline;overflow:visible;visibility:visible;isolation:auto;mix-blend-mode:normal;color-interpolation:sRGB;color-interpolation-filters:linearRGB;solid-color:#000000;solid-opacity:1;vector-effect:none;fill:#349951;fill-opacity:1;fill-rule:evenodd;stroke:none;stroke-width:0.421881;stroke-linecap:round;stroke-linejoin:round;stroke-miterlimit:1.5;stroke-dasharray:none;stroke-dashoffset:0;stroke-opacity:1;color-rendering:auto;image-rendering:auto;shape-rendering:auto;text-rendering:auto;enable-background:accumulate;stop-color:#000000"
         id="path2324" />
      <path
         sodipodi:nodetypes="ccccccccccccccccccccccccccsccsscccccccccccccccccccccc"
         transform="matrix(0.26458334,0,0,0.26458334,0,280.06666)"
         d="m 18.351563,273.95496 3.476563,-20.24805 c 0.294846,-1.6712 0.543888,-3.26773 0.771484,-4.81641 0.494762,-0.44513 1.021546,-0.76117 1.650391,-0.93359 0.534912,-0.14546 0.849434,-0.69828 0.701172,-1.23242 -0.121257,-0.43325 -0.516905,-0.73218 -0.966797,-0.73047 v -0.002 c -0.08793,0.002 -0.175273,0.0147 -0.259766,0.0391 -0.263906,0.0723 -0.515952,0.16241 -0.759765,0.26758 0.302174,-2.37248 0.505524,-4.51044 0.583984,-6.28516 0.0237,-0.57599 -0.443174,-1.0527 -1.019531,-1.04101 l -1e-6,1.3e-4 c -0.424394,0.009 -0.797096,0.28426 -0.929688,0.6875 0,0 -0.760622,2.23939 -2.03125,5.34961 -0.22654,-0.36837 -0.481328,-0.72562 -0.802734,-1.05469 -0.193428,-0.19898 -0.460842,-0.30863 -0.738281,-0.30274 -0.251351,0.006 -0.491236,0.10637 -0.671875,0.28125 -0.399573,0.38442 -0.410089,1.02055 -0.02344,1.41797 0.669533,0.68551 0.988589,1.42604 1.115235,2.3086 -1.057749,2.40035 -2.336714,5.04862 -3.78711,7.56836 -0.244374,-1.00239 -0.644442,-1.94422 -1.248047,-2.79102 -0.192743,-0.27087 -0.507498,-0.42825 -0.839843,-0.41992 -0.19905,0.005 -0.392192,0.0685 -0.554688,0.18359 -0.447802,0.32223 -0.550056,0.94623 -0.228516,1.39453 0.825604,1.15827 1.172679,2.61984 1.175782,4.37696 -0.613991,0.92266 -1.24457,1.80985 -1.898438,2.61523 -2.6560678,3.27088 -5.0109194,5.45535 -6.7929685,8.13477 -1.7820493,2.67938 -2.8963616,5.8383 -3.0117187,10.74023 -0.03696,1.55142 0.022997,3.28471 0.1855468,5.24023 0.1658597,1.98967 1.6967853,3.89771 3.4238282,5.56641 0.8635215,0.83433 1.7921089,1.58007 2.6953124,2.14844 0.903204,0.56833 1.7526829,0.98012 2.6503908,1.05469 7.1598,0.59659 11.347938,-0.20564 14.667969,-2.0293 3.32003,-1.82351 5.660511,-4.51143 9.449218,-7.58789 1.21169,-0.98374 2.469505,-1.92015 3.730469,-2.82813 0.886547,0.18565 1.670324,0.4981 2.351563,0.98243 0.450331,0.31991 1.074748,0.21409 1.394531,-0.23633 0.319911,-0.45033 0.214092,-1.07475 -0.236328,-1.39453 -0.459159,-0.32644 -0.952251,-0.58388 -1.462891,-0.80079 2.0129,-1.37611 3.959998,-2.61146 5.658203,-3.64257 0.667665,0.21834 1.278048,0.58256 1.865235,1.20898 0.378379,0.40569 1.01468,0.42584 1.417968,0.0449 0.400522,-0.37758 0.420599,-1.00785 0.04492,-1.41015 -0.400093,-0.42682 -0.836421,-0.76583 -1.289062,-1.05469 2.157715,-1.25915 3.576172,-2.00977 3.576172,-2.00977 0.878032,-0.45966 0.624526,-1.77926 -0.361328,-1.88086 -1.352656,-0.1399 -2.786002,-0.0353 -4.330079,0.20704 0.108208,-0.41619 0.191632,-0.84755 0.21875,-1.3086 0.03557,-0.55555 -0.389397,-1.03319 -0.945312,-1.0625 -0.02798,-10e-4 -0.056,-10e-4 -0.08398,0 -0.520266,0.0145 -0.94244,0.42561 -0.970703,0.94531 -0.04331,0.73633 -0.224935,1.33161 -0.509765,1.86329 z"
         style="color:#000000;font-style:normal;font-variant:normal;font-weight:normal;font-stretch:normal;font-size:medium;line-height:normal;font-family:sans-serif;font-variant-ligatures:normal;font-variant-position:normal;font-variant-caps:normal;font-variant-numeric:normal;font-variant-alternates:normal;font-variant-east-asian:normal;font-feature-settings:normal;font-variation-settings:normal;text-indent:0;text-align:start;text-decoration:none;text-decoration-line:none;text-decoration-style:solid;text-decoration-color:#000000;letter-spacing:normal;word-spacing:normal;text-transform:none;writing-mode:lr-tb;direction:ltr;text-orientation:mixed;dominant-baseline:auto;baseline-shift:baseline;text-anchor:start;white-space:normal;shape-padding:0;shape-margin:0;inline-size:0;clip-rule:evenodd;display:inline;overflow:visible;visibility:visible;opacity:1;isolation:auto;mix-blend-mode:normal;color-interpolation:sRGB;color-interpolation-filters:linearRGB;solid-color:#000000;solid-opacity:1;vector-effect:none;fill:#e2f0fa;fill-opacity:1;fill-rule:evenodd;stroke:none;stroke-width:1.59451;stroke-linecap:round;stroke-linejoin:round;stroke-miterlimit:1.5;stroke-dasharray:none;stroke-dashoffset:0;stroke-opacity:1;color-rendering:auto;image-rendering:auto;shape-rendering:auto;text-rendering:auto;enable-background:accumulate;stop-color:#000000;stop-opacity:1"
         id="path1616" />
      <path
         sodipodi:nodetypes="ccccscsc"
         transform="matrix(0.26458334,0,0,0.26458334,0,280.06666)"
         d="m 41.589844,271.74609 -12.001953,1.14063 -4.400391,2.86914 c -0.250462,0.16176 -0.416456,0.42837 -0.451172,0.72461 0,0 -1.776294,0.35621 -1.69746,1.75478 0.03627,0.6435 0.860181,2.47188 1.924023,2.75694 4.675528,0.7839 9.688731,-0.71018 13.320312,-4.3418 1.444018,-1.44404 2.552473,-3.11501 3.306641,-4.9043 z"
         style="color:#000000;font-style:normal;font-variant:normal;font-weight:normal;font-stretch:normal;font-size:medium;line-height:normal;font-family:sans-serif;font-variant-ligatures:normal;font-variant-position:normal;font-variant-caps:normal;font-variant-numeric:normal;font-variant-alternates:normal;font-variant-east-asian:normal;font-feature-settings:normal;font-variation-settings:normal;text-indent:0;text-align:start;text-decoration:none;text-decoration-line:none;text-decoration-style:solid;text-decoration-color:#000000;letter-spacing:normal;word-spacing:normal;text-transform:none;writing-mode:lr-tb;direction:ltr;text-orientation:mixed;dominant-baseline:auto;baseline-shift:baseline;text-anchor:start;white-space:normal;shape-padding:0;shape-margin:0;inline-size:0;clip-rule:evenodd;display:inline;overflow:visible;visibility:visible;isolation:auto;mix-blend-mode:normal;color-interpolation:sRGB;color-interpolation-filters:linearRGB;solid-color:#000000;solid-opacity:1;vector-effect:none;fill:#c8dae5;fill-opacity:1;fill-rule:evenodd;stroke:none;stroke-width:1.59451;stroke-linecap:round;stroke-linejoin:round;stroke-miterlimit:1.5;stroke-dasharray:none;stroke-dashoffset:0;stroke-opacity:1;color-rendering:auto;image-rendering:auto;shape-rendering:auto;text-rendering:auto;enable-background:accumulate;stop-color:#000000"
         id="path2302" />
      <path
         sodipodi:nodetypes="cscsccsc"
         transform="matrix(0.26458334,0,0,0.26458334,0,280.06666)"
         d="m 21.951172,252.94336 c -1.565992,0.74438 -3.037361,1.76003 -4.330078,3.05273 -3.487575,3.48759 -4.998723,8.24055 -4.417969,12.75391 0.334014,1.24656 1.426507,1.87656 2.667936,1.98779 1.360262,0.12189 2.222323,-2.54672 3.55472,-3.04244 l 2.402344,-13.98828 c 0.04676,-0.26502 0.0785,-0.5023 0.123047,-0.76367 z"
         style="color:#000000;font-style:normal;font-variant:normal;font-weight:normal;font-stretch:normal;font-size:medium;line-height:normal;font-family:sans-serif;font-variant-ligatures:normal;font-variant-position:normal;font-variant-caps:normal;font-variant-numeric:normal;font-variant-alternates:normal;font-variant-east-asian:normal;font-feature-settings:normal;font-variation-settings:normal;text-indent:0;text-align:start;text-decoration:none;text-decoration-line:none;text-decoration-style:solid;text-decoration-color:#000000;letter-spacing:normal;word-spacing:normal;text-transform:none;writing-mode:lr-tb;direction:ltr;text-orientation:mixed;dominant-baseline:auto;baseline-shift:baseline;text-anchor:start;white-space:normal;shape-padding:0;shape-margin:0;inline-size:0;clip-rule:evenodd;display:inline;overflow:visible;visibility:visible;opacity:1;isolation:auto;mix-blend-mode:normal;color-interpolation:sRGB;color-interpolation-filters:linearRGB;solid-color:#000000;solid-opacity:1;vector-effect:none;fill:#c8dae5;fill-opacity:1;fill-rule:evenodd;stroke:none;stroke-width:1.59451;stroke-linecap:round;stroke-linejoin:round;stroke-miterlimit:1.5;stroke-dasharray:none;stroke-dashoffset:0;stroke-opacity:1;color-rendering:auto;image-rendering:auto;shape-rendering:auto;text-rendering:auto;enable-background:accumulate;stop-color:#000000;stop-opacity:1"
         id="path2297" />
      <path
         sodipodi:nodetypes="csccsccsccccccccc"
         id="path1654"
         d="m 6.5224588,347.32827 c -0.5294949,0.16404 -1.0305545,0.45732 -1.4521469,0.87891 -0.9556739,0.95568 -1.2548261,2.31888 -0.8710937,3.49219 L 5.75,353.5293 c 1.2618401,0.65405 2.8820778,0.4148 3.9707031,-0.67383 0.4209369,-0.42094 0.7158509,-0.92191 0.8749999,-1.45413 0.162053,-0.53461 0.519928,-0.99856 1,-1.29397 0.197741,-0.12075 0.385444,-0.26631 0.556641,-0.4375 0.388773,-0.38877 0.64771,-0.85904 0.78125,-1.34765 6.91e-4,-0.002 0.0014,-0.004 0.002,-0.006 0.110441,-0.44337 0.355634,-0.84824 0.761742,-1.21096 0.879263,-0.87534 0.914783,-2.19658 0.117207,-2.99416 -0.984071,-0.78581 -2.152968,-0.70783 -2.989346,0.12038 -0.360721,0.40931 -0.768437,0.65762 -1.2138689,0.76852 -0.4929879,0.12662 -0.9645316,0.38474 -1.3535156,0.77444 -0.1715046,0.17279 -0.3158615,0.35849 -0.4414081,0.55183 -0.2969023,0.48152 -0.7600133,0.84044 -1.2939456,1.002 z"
         style="color:#000000;font-style:normal;font-variant:normal;font-weight:normal;font-stretch:normal;font-size:medium;line-height:normal;font-family:sans-serif;font-variant-ligatures:normal;font-variant-position:normal;font-variant-caps:normal;font-variant-numeric:normal;font-variant-alternates:normal;font-variant-east-asian:normal;font-feature-settings:normal;font-variation-settings:normal;text-indent:0;text-align:start;text-decoration:none;text-decoration-line:none;text-decoration-style:solid;text-decoration-color:#000000;letter-spacing:normal;word-spacing:normal;text-transform:none;writing-mode:lr-tb;direction:ltr;text-orientation:mixed;dominant-baseline:auto;baseline-shift:baseline;text-anchor:start;white-space:normal;shape-padding:0;shape-margin:0;inline-size:0;clip-rule:evenodd;display:inline;overflow:visible;visibility:visible;isolation:auto;mix-blend-mode:normal;color-interpolation:sRGB;color-interpolation-filters:linearRGB;solid-color:#000000;solid-opacity:1;vector-effect:none;fill:#50b86b;fill-opacity:1;fill-rule:evenodd;stroke:none;stroke-width:0.421881;stroke-linecap:round;stroke-linejoin:round;stroke-miterlimit:1.5;stroke-dasharray:none;stroke-dashoffset:0;stroke-opacity:1;color-rendering:auto;image-rendering:auto;shape-rendering:auto;text-rendering:auto;enable-background:accumulate;stop-color:#000000" />
      <path
         sodipodi:nodetypes="cccccccccccsscccccccccccccccccccc"
         transform="matrix(0.26458334,0,0,0.26458334,0,280.06666)"
         d="m 27.341802,270.68553 c 1.941511,-0.92829 3.750269,-1.30274 5.478515,-0.98828 0.541687,0.096 1.059201,-0.26354 1.158204,-0.80469 0.102031,-0.5451 -0.259002,-1.06912 -0.804688,-1.16797 -1.275191,-0.23203 -2.55038,-0.15671 -3.814453,0.13477 2.255682,-2.96701 4.710329,-5.87588 7.322266,-8.72852 0.987818,-0.41499 1.882834,-0.54614 2.767578,-0.33789 0.538361,0.12682 1.077424,-0.20747 1.203125,-0.74609 0.126824,-0.53836 -0.207466,-1.07743 -0.746094,-1.20313 -0.313786,-0.0739 -0.627255,-0.11368 -0.939453,-0.13281 2.20683,-2.31043 4.486562,-4.59167 6.853515,-6.83399 0.683467,-0.63673 0.198433,-1.77966 -0.734374,-1.73047 l -5e-6,2e-5 c -0.0091,5.4e-4 -0.01824,0.001 -0.02734,0.002 -0.139549,0.0108 -0.275288,0.0507 -0.398438,0.11718 -2.550148,1.35507 -5.048145,2.8002 -7.5,4.33399 0.04779,-0.58705 0.02911,-1.18062 -0.111328,-1.77734 -0.104096,-0.44042 -0.491002,-0.75604 -0.943359,-0.76954 -0.08724,-0.004 -0.17457,0.004 -0.259766,0.0234 -0.537835,0.12659 -0.871074,0.66538 -0.744141,1.20313 0.214436,0.91117 0.07442,1.82804 -0.36914,2.84961 l -9.373049,6.96487 c 0.04623,-0.27661 0.09211,-0.55419 0.115234,-0.83203 0.04397,-0.5472 -0.361398,-1.02754 -0.908203,-1.07617 -0.05654,-0.005 -0.113384,-0.005 -0.169922,0 -0.487136,0.0403 -0.873721,0.42692 -0.914062,0.91406 -0.09202,1.10585 -0.441713,2.26262 -0.994141,3.46094 -3.443016,3.06298 -6.758316,6.40722 -9.93164,10.09179 -0.784,0.91049 -1.55943,1.8402 -2.326172,2.79102 -0.3206461,0.39873 -0.288621,0.97518 0.07422,1.33594 l 7.353515,7.35937 c 0.503909,0.50371 1.357932,0.33393 1.630859,-0.32422 z"
         style="color:#000000;font-style:normal;font-variant:normal;font-weight:normal;font-stretch:normal;font-size:medium;line-height:normal;font-family:sans-serif;font-variant-ligatures:normal;font-variant-position:normal;font-variant-caps:normal;font-variant-numeric:normal;font-variant-alternates:normal;font-variant-east-asian:normal;font-feature-settings:normal;font-variation-settings:normal;text-indent:0;text-align:start;text-decoration:none;text-decoration-line:none;text-decoration-style:solid;text-decoration-color:#000000;letter-spacing:normal;word-spacing:normal;text-transform:none;writing-mode:lr-tb;direction:ltr;text-orientation:mixed;dominant-baseline:auto;baseline-shift:baseline;text-anchor:start;white-space:normal;shape-padding:0;shape-margin:0;inline-size:0;clip-rule:evenodd;display:inline;overflow:visible;visibility:visible;isolation:auto;mix-blend-mode:normal;color-interpolation:sRGB;color-interpolation-filters:linearRGB;solid-color:#000000;solid-opacity:1;vector-effect:none;fill:#e2f0fa;fill-opacity:1;fill-rule:evenodd;stroke:none;stroke-width:1.59451;stroke-linecap:round;stroke-linejoin:round;stroke-miterlimit:1.5;stroke-dasharray:none;stroke-dashoffset:0;stroke-opacity:1;color-rendering:auto;image-rendering:auto;shape-rendering:auto;text-rendering:auto;enable-background:accumulate;stop-color:#000000"
         id="path1661" />
      <path
         sodipodi:nodetypes="csscccccssccc"
         d="m 3.2323608,357.18547 c -0.2375186,-0.0197 -0.4622766,-0.12868 -0.7012493,-0.27905 -0.2389725,-0.15038 -0.4846614,-0.3477 -0.7131347,-0.56844 -0.4569468,-0.44152 -0.86200798,-0.94634 -0.90588778,-1.47278 -0.04299,-0.5174 -0.058893,-0.976 -0.049093,-1.38648 0.030522,-1.29696 0.32534998,-2.13277 0.53226738,-2.5771 -0.73608408,0.9735 -1.03091218,1.8093 -1.06143408,3.10626 -0.0098,0.41048 0.0061,0.86908 0.049093,1.38648 0.04388,0.52644 0.448941,1.03127 0.90588778,1.47278 0.2284733,0.22075 0.4741622,0.41806 0.7131347,0.56844 0.2389727,0.15037 0.4637307,0.25933 0.7012493,0.27906 1.8943638,0.15784 3.0024751,-0.0544 4.1454836,-0.80151 -0.6138418,0.21794 -1.7219531,0.43018 -3.6163169,0.27234 z"
         style="color:#000000;font-style:normal;font-variant:normal;font-weight:normal;font-stretch:normal;font-size:medium;line-height:normal;font-family:sans-serif;font-variant-ligatures:normal;font-variant-position:normal;font-variant-caps:normal;font-variant-numeric:normal;font-variant-alternates:normal;font-variant-east-asian:normal;font-feature-settings:normal;font-variation-settings:normal;text-indent:0;text-align:start;text-decoration:none;text-decoration-line:none;text-decoration-style:solid;text-decoration-color:#000000;letter-spacing:normal;word-spacing:normal;text-transform:none;writing-mode:lr-tb;direction:ltr;text-orientation:mixed;dominant-baseline:auto;baseline-shift:baseline;text-anchor:start;white-space:normal;shape-padding:0;shape-margin:0;inline-size:0;clip-rule:evenodd;display:inline;overflow:visible;visibility:visible;opacity:1;isolation:auto;mix-blend-mode:normal;color-interpolation:sRGB;color-interpolation-filters:linearRGB;solid-color:#000000;solid-opacity:1;vector-effect:none;fill:#c8dae5;fill-opacity:1;fill-rule:evenodd;stroke:none;stroke-width:0.421881;stroke-linecap:round;stroke-linejoin:round;stroke-miterlimit:1.5;stroke-dasharray:none;stroke-dashoffset:0;stroke-opacity:1;color-rendering:auto;image-rendering:auto;shape-rendering:auto;text-rendering:auto;enable-background:accumulate;stop-color:#000000;stop-opacity:1"
         id="path2312" />
    </g>
  </g>
</svg>
