<svg width="28" height="29" viewBox="0 0 28 29" fill="none" xmlns="http://www.w3.org/2000/svg">
<path d="M27.6578 22.6129L19.2695 14.2129L22.5782 10.8995L22.5783 10.8995L24.5355 8.93954L24.5356 8.93948L27.3782 6.09289C28.1704 5.29954 28.1704 3.99289 27.3782 3.19954L25.0015 0.819539C24.6287 0.446242 24.1161 0.212891 23.5569 0.212891C22.9976 0.212891 22.485 0.446242 22.1122 0.819539L19.2695 3.66619L17.3123 5.62619L14.0035 8.93954L5.70836 0.632891C5.19573 0.119539 4.26373 0.119539 3.75109 0.632891L0.4424 3.94624C-0.116822 4.45959 -0.116822 5.34624 0.4424 5.90624L1.42104 6.88624L4.07734 9.54624L6.687 12.1595C6.687 12.1595 6.687 12.1595 6.68706 12.1596L8.7375 14.2129L1.25649 21.7043C1.11701 21.7659 1.04181 21.8919 1.00162 22.0529L0.0229836 27.6529C0.0229836 27.8395 0.0695671 27.9795 0.162789 28.0729C0.255956 28.1662 0.349178 28.2129 0.488983 28.2129C0.535567 28.2129 0.535567 28.2129 0.582205 28.2129L5.95843 27.2176C5.99562 27.2274 6.03576 27.2329 6.0812 27.2329C6.221 27.2329 6.36081 27.1862 6.40739 27.0929L14.0035 19.4862L14.6093 20.0929C14.6093 20.0929 14.6093 20.0929 14.6093 20.0929L14.6094 20.093L15.9142 21.3996C15.9142 21.3996 15.9142 21.3996 15.9142 21.3996L15.9143 21.3997L22.3918 27.8863C22.6249 28.1196 22.9045 28.2129 23.1841 28.2129C23.4637 28.2129 23.7433 28.1196 23.9297 27.8863L27.6579 24.1529C28.0772 23.7329 28.0772 23.0329 27.6578 22.6129ZM6.0812 26.0662L4.45061 24.4334L19.9447 8.9624L21.553 10.5729L6.0812 26.0662ZM22.7646 1.47289C23.184 1.05289 23.9296 1.05289 24.3491 1.47289L26.7257 3.85289C27.1452 4.27289 27.1452 5.01954 26.7257 5.43954L24.2092 7.95954L20.2481 3.99289L22.7646 1.47289ZM19.5957 4.64624L21.5763 6.62959L23.5569 8.61289L22.252 9.91954L18.2909 5.95289L19.5957 4.64624ZM8.99379 13.1629L9.99574 12.1595C10.1821 11.9729 10.1821 11.6929 9.99574 11.5062C9.80936 11.3195 9.52975 11.3195 9.3433 11.5062L8.34134 12.5095L7.66564 11.8329L9.29672 10.1995C9.48311 10.0129 9.48311 9.73289 9.29672 9.54619C9.11033 9.35948 8.83072 9.35954 8.64428 9.54619L7.0132 11.1795L6.36075 10.5262L7.33939 9.54619C7.52578 9.35954 7.52578 9.07954 7.33939 8.89284C7.153 8.70613 6.87339 8.70619 6.68695 8.89284L5.70831 9.87284L5.05587 9.21948L6.68695 7.58613C6.87333 7.39948 6.87333 7.11948 6.68695 6.93278C6.50056 6.74608 6.22095 6.74613 6.0345 6.93278L4.40353 8.56624L3.7045 7.86624L4.68314 6.88624C4.86953 6.69959 4.86953 6.41959 4.68314 6.23289C4.49675 6.04619 4.21714 6.04624 4.0307 6.23289L3.05206 7.21289L2.39962 6.55954L4.0307 4.92619C4.21709 4.73954 4.21709 4.45954 4.0307 4.27284C3.84431 4.08613 3.5647 4.08619 3.37826 4.27284L1.74723 5.90624L1.09479 5.25289C0.908399 5.06624 0.908399 4.78624 1.09479 4.59954L4.40353 1.28624C4.49675 1.19289 4.58992 1.14624 4.72973 1.14624C4.82295 1.14624 4.96275 1.19289 5.05592 1.28624L13.3511 9.59289L9.38994 13.5595L8.99379 13.1629ZM17.6385 6.65289L19.269 8.28575L3.7749 23.7567L2.16665 22.1462L17.6385 6.65289ZM1.79381 23.0795L3.32272 24.6106C3.34598 24.6639 3.37989 24.7145 3.42489 24.7595L5.10944 26.4464L1.09484 27.1395L1.79381 23.0795ZM27.0054 23.4995L23.2773 27.2329C23.2307 27.2795 23.0909 27.2795 23.0442 27.2329L18.2209 22.4029L19.8753 20.7462C20.0617 20.5596 20.0617 20.2796 19.8753 20.0929C19.6889 19.9062 19.4093 19.9062 19.2228 20.0929L17.5685 21.7495L16.8928 21.0729L17.8714 20.0929C18.0578 19.9062 18.0578 19.6262 17.8714 19.4395C17.685 19.2529 17.4054 19.2529 17.219 19.4395L16.2403 20.4195L15.5879 19.7662L17.219 18.1328C17.4054 17.9462 17.4054 17.6662 17.219 17.4795C17.0326 17.2928 16.753 17.2928 16.5665 17.4795L14.9355 19.1129L14.6559 18.8329L18.617 14.8662L27.0054 23.2662C27.052 23.3129 27.052 23.4529 27.0054 23.4995Z" fill="#E3B873"/>
</svg>
