<svg width="33" height="33" viewBox="0 0 33 33" fill="none" xmlns="http://www.w3.org/2000/svg">
<path d="M24.2127 3.07222C23.9503 1.81896 22.8107 0.872559 21.4477 0.872559C21.1362 0.872559 20.8833 1.11837 20.8833 1.42247C20.8833 1.72658 21.1362 1.97239 21.4477 1.97239C22.3812 1.97239 23.1409 2.71258 23.1409 3.62214C23.1409 4.5317 22.3812 5.27189 21.4477 5.27189C21.1362 5.27189 20.8833 5.5177 20.8833 5.8218C20.8833 6.12591 21.1362 6.37172 21.4477 6.37172C22.8102 6.37172 23.9503 5.42531 24.2127 4.17205H31.607V9.1213H1.12912V4.17205H9.03079H10.724C11.0356 4.17205 11.2884 3.92624 11.2884 3.62214C11.2884 3.31804 11.0356 3.07222 10.724 3.07222H9.69905C9.93271 2.43322 10.5536 1.97239 11.2884 1.97239C12.2219 1.97239 12.9816 2.71258 12.9816 3.62214C12.9816 4.5317 12.2219 5.27189 11.2884 5.27189C10.9769 5.27189 10.724 5.5177 10.724 5.8218C10.724 6.12591 10.9769 6.37172 11.2884 6.37172C12.8445 6.37172 14.1104 5.13826 14.1104 3.62214C14.1104 2.10602 12.8445 0.872559 11.2884 0.872559C9.92594 0.872559 8.78584 1.81896 8.52339 3.07222H0.000305176V10.2211V32.2178H32.7358V10.2211V3.07222H24.2127ZM31.607 31.1179H1.12912V10.2211H31.607V31.1179Z" fill="white"/>
<path d="M14.6749 1.97239C15.6084 1.97239 16.3681 2.71258 16.3681 3.62214C16.3681 4.5317 15.6084 5.27189 14.6749 5.27189C14.3633 5.27189 14.1105 5.5177 14.1105 5.8218C14.1105 6.12591 14.3633 6.37172 14.6749 6.37172C16.2309 6.37172 17.4969 5.13826 17.4969 3.62214C17.4969 2.10602 16.2309 0.872559 14.6749 0.872559C14.3633 0.872559 14.1105 1.11837 14.1105 1.42247C14.1105 1.72658 14.3633 1.97239 14.6749 1.97239Z" fill="white"/>
<path d="M18.0613 1.97239C18.9948 1.97239 19.7545 2.71258 19.7545 3.62214C19.7545 4.5317 18.9948 5.27189 18.0613 5.27189C17.7497 5.27189 17.4969 5.5177 17.4969 5.8218C17.4969 6.12591 17.7497 6.37172 18.0613 6.37172C19.6174 6.37172 20.8833 5.13826 20.8833 3.62214C20.8833 2.10602 19.6174 0.872559 18.0613 0.872559C17.7497 0.872559 17.4969 1.11837 17.4969 1.42247C17.4969 1.72658 17.7497 1.97239 18.0613 1.97239Z" fill="white"/>
<path d="M5.08 14.6201H17.4969C17.8085 14.6201 18.0613 14.3743 18.0613 14.0702C18.0613 13.7661 17.8085 13.5203 17.4969 13.5203H5.08C4.76845 13.5203 4.51559 13.7661 4.51559 14.0702C4.51559 14.3743 4.76845 14.6201 5.08 14.6201Z" fill="white"/>
<path d="M27.6562 22.3191H19.1901C18.8786 22.3191 18.6257 22.5649 18.6257 22.869C18.6257 23.1731 18.8786 23.4189 19.1901 23.4189H27.6562C27.9677 23.4189 28.2206 23.1731 28.2206 22.869C28.2206 22.5649 27.9677 22.3191 27.6562 22.3191Z" fill="white"/>
<path d="M5.08 19.0198H10.7241C11.0356 19.0198 11.2885 18.7739 11.2885 18.4698C11.2885 18.1657 11.0356 17.9199 10.7241 17.9199H5.08C4.76845 17.9199 4.51559 18.1657 4.51559 18.4698C4.51559 18.7739 4.76845 19.0198 5.08 19.0198Z" fill="white"/>
<path d="M27.6562 26.7185H22.0122C21.7006 26.7185 21.4478 26.9643 21.4478 27.2684C21.4478 27.5725 21.7006 27.8183 22.0122 27.8183H27.6562C27.9678 27.8183 28.2206 27.5725 28.2206 27.2684C28.2206 26.9643 27.9678 26.7185 27.6562 26.7185Z" fill="white"/>
<path d="M15.8037 18.4698C15.8037 18.7739 16.0565 19.0198 16.3681 19.0198H24.8342C25.1457 19.0198 25.3986 18.7739 25.3986 18.4698C25.3986 18.1657 25.1457 17.9199 24.8342 17.9199H16.3681C16.0565 17.9199 15.8037 18.1657 15.8037 18.4698Z" fill="white"/>
<path d="M13.9482 18.8605C14.0499 18.756 14.1121 18.613 14.1121 18.47C14.1121 18.3265 14.0499 18.1835 13.9482 18.0796C13.739 17.8761 13.3547 17.8761 13.1456 18.0796C13.0439 18.1835 12.9817 18.3265 12.9817 18.47C12.9817 18.613 13.0439 18.756 13.1456 18.8605C13.253 18.9644 13.3999 19.02 13.5469 19.02C13.6938 19.02 13.8408 18.9644 13.9482 18.8605Z" fill="white"/>
<path d="M7.33759 22.869C7.33759 23.1731 7.59044 23.4189 7.90199 23.4189H16.3681C16.6796 23.4189 16.9325 23.1731 16.9325 22.869C16.9325 22.5649 16.6796 22.3191 16.3681 22.3191H7.90199C7.59044 22.3191 7.33759 22.5649 7.33759 22.869Z" fill="white"/>
<path d="M5.08079 23.4194C5.22774 23.4194 5.37469 23.3589 5.48207 23.26C5.58381 23.1555 5.64598 23.0125 5.64598 22.8695C5.64598 22.726 5.58381 22.583 5.48207 22.4846C5.27295 22.2756 4.88862 22.2756 4.6795 22.4791C4.57777 22.583 4.51559 22.726 4.51559 22.8695C4.51559 23.0125 4.57777 23.1555 4.6795 23.26C4.78689 23.3589 4.92818 23.4194 5.08079 23.4194Z" fill="white"/>
<path d="M27.657 19.02C27.8039 19.02 27.9509 18.9644 28.0583 18.8605C28.1657 18.756 28.2222 18.613 28.2222 18.47C28.2222 18.3265 28.1657 18.1835 28.0583 18.0796C27.8435 17.8761 27.4648 17.8761 27.2557 18.0796C27.154 18.1835 27.0918 18.3265 27.0918 18.47C27.0918 18.613 27.154 18.756 27.2557 18.8605C27.3631 18.9644 27.51 19.02 27.657 19.02Z" fill="white"/>
<path d="M19.1901 26.7185H5.08C4.76845 26.7185 4.51559 26.9643 4.51559 27.2684C4.51559 27.5725 4.76845 27.8183 5.08 27.8183H19.1901C19.5017 27.8183 19.7545 27.5725 19.7545 27.2684C19.7545 26.9643 19.5017 26.7185 19.1901 26.7185Z" fill="white"/>
</svg>
