<svg width="34" height="30" viewBox="0 0 34 30" fill="none" xmlns="http://www.w3.org/2000/svg">
<path d="M22.4158 9.43274L17.5771 7.97899C17.2138 7.87047 16.8405 7.83226 16.4706 7.84579V7.83332H10.5895L0.160332 4.36279L0.191862 19.0377L3.18567 20.5363L4.95826 16.1968L7.54773 17.2343L8.21915 15.5539L9.19156 16.5277L8.28433 17.4364C7.96902 17.7522 7.78832 18.1889 7.78832 18.6357C7.78832 19.5501 8.51643 20.2935 9.42207 20.3256C9.4536 21.2118 10.165 21.9243 11.05 21.9558C11.0815 22.842 11.793 23.5544 12.6779 23.586C12.7105 24.4929 13.4524 25.222 14.3657 25.222C14.8117 25.222 15.2481 25.0411 15.5631 24.7253L16.4706 23.8169L16.8352 24.182C17.1505 24.4977 17.5866 24.6787 18.0328 24.6787C18.9461 24.6787 19.6883 23.9495 19.7203 23.0426C20.6053 23.011 21.3167 22.2986 21.3483 21.4124C22.2332 21.3809 22.9447 20.6684 22.9762 19.7822C23.8818 19.7496 24.6102 19.0067 24.6102 18.0923C24.6102 18.0151 24.5978 17.939 24.5874 17.8623L25.3662 17.0825L25.9954 18.3433L29.4039 16.6365L31.4637 20.5745L33.8351 18.9921V4.94732L22.4158 9.43274ZM2.62342 19.0398L1.27609 18.3651L1.2488 5.87014L7.19507 7.84924L2.62342 19.0398ZM6.94336 15.8214L5.36869 15.1909L8.22736 8.19258L9.78295 8.71051L6.94336 15.8214ZM8.8736 18.6357C8.8736 18.4752 8.93799 18.3184 9.05139 18.2046L10.0055 17.2494C10.1189 17.1358 10.2758 17.0711 10.4358 17.0711C10.7713 17.0711 11.0442 17.3446 11.0442 17.6803C11.0442 17.8405 10.9795 17.9976 10.8661 18.1112L9.91225 19.0666C9.79885 19.1802 9.64199 19.2447 9.48196 19.2447C9.14651 19.2447 8.8736 18.9714 8.8736 18.6357ZM10.5015 20.2659C10.5015 20.1054 10.5659 19.9486 10.6793 19.8348L11.6334 18.8796C11.7469 18.766 11.9037 18.7013 12.0637 18.7013C12.3992 18.7013 12.6721 18.9748 12.6721 19.3105C12.6721 19.4707 12.6074 19.6278 12.494 19.7414L11.5402 20.6968C11.4268 20.8104 11.2699 20.8749 11.1099 20.8749C10.7744 20.8749 10.5015 20.6016 10.5015 20.2659ZM12.1295 21.8961C12.1295 21.7356 12.1938 21.5788 12.3072 21.465L13.2614 20.5098C13.3748 20.3962 13.5316 20.3315 13.6917 20.3315C14.0271 20.3315 14.3 20.605 14.3 20.9407C14.3 21.1009 14.2354 21.258 14.122 21.3716L13.1681 22.327C13.0547 22.4406 12.8978 22.5051 12.7378 22.5051C12.4024 22.5051 12.1295 22.2318 12.1295 21.8961ZM15.7499 23.0018L14.796 23.9572C14.6826 24.0708 14.5258 24.1353 14.3657 24.1353C14.0303 24.1353 13.7574 23.862 13.7574 23.5263C13.7574 23.3658 13.8218 23.209 13.9352 23.0952L14.8893 22.14C15.0027 22.0264 15.1596 21.9617 15.3196 21.9617C15.655 21.9617 15.9279 22.2352 15.9279 22.5709C15.9279 22.7311 15.8633 22.8882 15.7499 23.0018ZM22.9166 18.7013C22.7565 18.7013 22.5997 18.6368 22.4863 18.5232L17.9395 13.9699L17.1722 14.7383L21.719 19.2914C21.8324 19.4052 21.897 19.562 21.897 19.7225C21.897 20.0582 21.6241 20.3315 21.2887 20.3315C21.1286 20.3315 20.9718 20.267 20.8584 20.1534L16.3116 15.6001L15.5443 16.3685L20.091 20.9216C20.2044 21.0354 20.2691 21.1922 20.2691 21.3527C20.2691 21.6884 19.9962 21.9617 19.6607 21.9617C19.5007 21.9617 19.3438 21.8972 19.2304 21.7836L14.6837 17.2303L13.9164 17.9987L18.4631 22.5518C18.5765 22.6656 18.6412 22.8224 18.6412 22.9829C18.6412 23.3186 18.3682 23.5919 18.0328 23.5919C17.8728 23.5919 17.7159 23.5274 17.6025 23.4138L16.9904 22.8006C17.0013 22.7248 17.0132 22.6486 17.0132 22.5709C17.0132 21.6563 16.2849 20.9131 15.3792 20.881C15.3477 19.9948 14.6363 19.2824 13.7513 19.2508C13.7198 18.3646 13.0083 17.6522 12.1234 17.6206C12.0908 16.7137 11.3491 15.9843 10.4358 15.9843C10.3587 15.9843 10.2827 15.9968 10.2064 16.0071L8.65713 14.4557L10.8688 8.92012H14.0753L12.0828 10.9157C11.7625 11.2357 11.5868 11.6618 11.5868 12.115C11.5868 13.05 12.3465 13.8107 13.2804 13.8107C13.7264 13.8107 14.1628 13.6297 14.4778 13.314L15.9155 11.874C16.2096 11.5806 16.7276 11.5692 17.0339 11.8502L18.3025 13.0147C18.7241 13.4016 19.1925 13.7234 19.6939 13.9755L23.3469 17.6612C23.4603 17.775 23.5249 17.9318 23.5249 18.0923C23.5249 18.428 23.252 18.7013 22.9166 18.7013ZM24.0676 16.8461L21.8371 14.5955C22.0364 14.6144 22.2372 14.6258 22.4397 14.6258V13.539C21.1763 13.539 19.9673 13.068 19.0362 12.2131L17.7673 11.0491C17.0511 10.3906 15.8363 10.4168 15.1487 11.1062L13.7113 12.5459C13.5973 12.6589 13.4405 12.7239 13.2804 12.7239C12.945 12.7239 12.6721 12.4506 12.6721 12.115C12.6721 11.9518 12.7349 11.7992 12.8499 11.6838L14.9184 9.61263C15.5263 9.00396 16.4391 8.77233 17.2649 9.02015L22.0586 10.4601L24.8537 16.0588L24.0676 16.8461ZM26.4806 16.8854L23.1906 10.2956L25.5935 9.35154L28.9002 15.6736L26.4806 16.8854ZM32.7498 18.4107L31.8651 19.0014L26.6099 8.95275L32.7498 6.54116V18.4107Z" fill="#E3B873"/>
<circle cx="20.6668" cy="1.57397" r="0.485591" fill="#E3B873"/>
<circle cx="8.40992" cy="24.5032" r="0.485591" fill="#E3B873"/>
<circle cx="10.468" cy="26.1916" r="0.485591" fill="#E3B873"/>
<circle cx="12.8167" cy="27.4304" r="0.485591" fill="#E3B873"/>
<circle cx="15.3655" cy="28.2229" r="0.485591" fill="#E3B873"/>
<circle cx="23.2141" cy="2.34692" r="0.485591" fill="#E3B873"/>
<circle cx="25.5632" cy="3.60131" r="0.485591" fill="#E3B873"/>
<path d="M27.8305 2.89941V5.70111H24.9971" stroke="#E3B873" stroke-linecap="round" stroke-linejoin="round"/>
<path d="M6.0104 24.1865L6.0104 21.9197L8.27443 21.9197" stroke="#E3B873" stroke-linecap="round" stroke-linejoin="round"/>
<path d="M8.80079 4.88243C10.3359 3.54661 11.3124 2.93205 13.1519 2.2138C15.1033 1.45186 16.4237 1.27294 18.5441 1.27295" stroke="#E3B873" stroke-linecap="round"/>
<path d="M29.4046 22.3709C28.2633 24.1511 26.1377 25.8893 24.4089 26.8437C22.575 27.8563 20.6102 28.4268 17.9931 28.5632" stroke="#E3B873" stroke-linecap="round"/>
</svg>
