<svg width="14" height="15" viewBox="0 0 14 15" fill="none" xmlns="http://www.w3.org/2000/svg">
<path d="M9.96942 1.59375H3.97776C2.32321 1.59375 0.981933 2.9369 0.981933 4.59375V10.5938C0.981933 12.2506 2.32321 13.5938 3.97776 13.5938H9.96942C11.624 13.5938 12.9652 12.2506 12.9652 10.5938V4.59375C12.9652 2.9369 11.624 1.59375 9.96942 1.59375Z" stroke="white" stroke-width="1.5"/>
<path d="M9.37027 7.21593C9.44421 7.71528 9.35904 8.22526 9.12686 8.67334C8.89469 9.12142 8.52733 9.48478 8.07705 9.71173C7.62676 9.93869 7.11648 10.0177 6.61877 9.93749C6.12107 9.85729 5.66129 9.62198 5.30483 9.26503C4.94838 8.90807 4.71339 8.44766 4.63331 7.94926C4.55322 7.45086 4.63211 6.93987 4.85875 6.48896C5.08539 6.03804 5.44824 5.67018 5.8957 5.43768C6.34316 5.20518 6.85243 5.11988 7.35108 5.19393C7.85973 5.26946 8.33063 5.50681 8.69423 5.87091C9.05783 6.23502 9.29484 6.70658 9.37027 7.21593Z" stroke="white" stroke-width="1.5" stroke-linecap="round" stroke-linejoin="round"/>
</svg>
