<svg width="34" height="29" viewBox="0 0 34 29" fill="none" xmlns="http://www.w3.org/2000/svg">
<path d="M32.8249 9.76553L8.73793 0.829306C8.42984 0.7153 8.08755 0.873058 7.97395 1.18182C7.9737 1.18207 7.9737 1.18232 7.97345 1.18257L5.30703 8.45071C5.19368 8.75948 5.35172 9.102 5.66005 9.2155H5.66055L8.45256 10.2421L7.83739 11.9204C7.72429 12.2292 7.88233 12.5712 8.19066 12.6847L13.7757 14.738L13.3652 15.8569C12.9922 16.8589 13.3403 17.987 14.2131 18.6032V21.6434H6.20832C5.82084 20.7564 5.0279 20.1123 4.08092 19.9158V18.6648C4.08092 18.3357 3.81478 18.069 3.48597 18.069H1.08743C0.758871 18.069 0.492477 18.3357 0.492477 18.6648V28.1965C0.492477 28.5258 0.758871 28.7923 1.08743 28.7923H3.48597C3.81478 28.7923 4.08092 28.5258 4.08092 28.1965V26.9457C5.0279 26.7489 5.82084 26.1051 6.20832 25.2178H14.2131V25.8136C14.2131 26.8007 15.012 27.601 15.9977 27.601C16.9834 27.601 17.7826 26.8007 17.7826 25.8136V19.214C18.3233 18.9455 18.741 18.4797 18.9493 17.9122L19.3597 16.7934L24.386 18.6403C24.4516 18.6645 24.5208 18.6768 24.5907 18.6768C24.8401 18.6768 25.0633 18.521 25.1494 18.2865L25.3724 17.6782C27.3083 18.043 29.1728 16.7672 29.5368 14.8288C29.6714 14.1125 29.584 13.3722 29.2864 12.7072L32.8928 10.8528C33.1852 10.7028 33.3008 10.3438 33.151 10.051C33.0831 9.91804 32.9677 9.81553 32.8279 9.76378L32.8249 9.76553ZM15.4028 19.146L15.8953 19.3248C16.1195 19.4053 16.3547 19.4515 16.5927 19.4618V21.6434H15.4028V19.146ZM2.89126 27.601H1.68238V19.2605H2.89126V27.601ZM5.27083 24.0265C5.26983 24.7836 4.79347 25.4584 4.08092 25.7119V21.1496C4.79347 21.4029 5.26983 22.0777 5.27083 22.835V24.0265ZM6.47921 22.835H16.5927V24.0265H6.47921V22.835ZM15.9977 26.4094C15.6691 26.4094 15.4028 26.1426 15.4028 25.8136V25.2178H16.5927V25.8136C16.5927 26.1426 16.3263 26.4094 15.9977 26.4094ZM18.2429 16.3831L17.8325 17.5019C17.6058 18.119 16.9225 18.4355 16.3058 18.209L15.1868 17.7985C14.5701 17.5717 14.2535 16.8872 14.48 16.2694C14.48 16.2694 14.48 16.2694 14.48 16.2691L14.8907 15.1511L17.9061 16.2596L18.2429 16.3831ZM24.2379 17.3184L9.15912 11.7736L9.56982 10.6548L18.5048 13.9405C18.7163 14.0175 18.9535 13.9693 19.118 13.8152L20.7875 12.2414L25.4683 13.963L24.2379 17.3184ZM28.2603 14.9901C27.8833 16.0079 26.8694 16.6439 25.7906 16.5391L26.7099 14.0315L28.2113 13.2572C28.4463 13.8077 28.4638 14.4273 28.2603 14.9901ZM26.2522 12.9302C26.2208 12.9329 26.1896 12.9384 26.1588 12.9467L20.8547 10.9963C20.6432 10.9186 20.406 10.9668 20.2418 11.1214L18.5703 12.6954L6.62901 8.3042L8.88448 2.15438L31.1437 10.4126L26.2522 12.9302Z" fill="#E3B873"/>
<path d="M13.1293 8.70337L12.6038 10.1233M15.419 9.5434L14.8936 10.9633M17.641 10.3699L17.1156 11.7898" stroke="#E3B873" stroke-linecap="round"/>
</svg>
