<svg width="29" height="29" viewBox="0 0 29 29" fill="none" xmlns="http://www.w3.org/2000/svg">
<g clip-path="url(#clip0_1_11493)">
<path d="M14.5 9.35478C16.3054 9.35478 17.7742 7.88601 17.7742 6.08059C17.7742 4.27517 16.3054 2.8064 14.5 2.8064C12.6946 2.8064 11.2258 4.27517 11.2258 6.08059C11.2258 7.88601 12.6946 9.35478 14.5 9.35478ZM14.5 3.74188C15.7895 3.74188 16.8387 4.7911 16.8387 6.08059C16.8387 7.20975 16.0336 8.15459 14.9677 8.37202V6.54833H14.0323V8.37202C12.9664 8.15459 12.1613 7.2102 12.1613 6.08059C12.1613 4.7911 13.2105 3.74188 14.5 3.74188Z" fill="#E3B873"/>
<path d="M14.0322 5.14523C14.0322 4.88691 14.2416 4.67749 14.5 4.67749C14.7583 4.67749 14.9677 4.88691 14.9677 5.14523C14.9677 5.40356 14.7583 5.61297 14.5 5.61297C14.2416 5.61297 14.0322 5.40356 14.0322 5.14523Z" fill="#E3B873"/>
<path d="M14.5011 6.69775L14.5011 8.44864" stroke="#E3B873" stroke-linecap="round"/>
<path d="M27.1683 22.1373L24.7903 21.6089V20.9253C25.6374 20.3328 26.1936 19.3519 26.1936 18.2424V17.3069C26.1936 15.6609 24.9715 14.2983 23.3871 14.0702V11.8452L19.0646 10.1158L19.7322 9.44848L19.0642 8.44653C19.1989 8.18685 19.3113 7.91598 19.3997 7.63644L20.5807 7.3996V4.76169L19.4001 4.52531C19.3117 4.24576 19.1989 3.97489 19.0646 3.71521L19.7327 2.71327L17.8679 0.848467L16.8659 1.51651C16.6062 1.38176 16.3354 1.26939 16.0558 1.181L15.819 0H13.1811L12.9447 1.18055C12.6651 1.26893 12.3943 1.38176 12.1346 1.51605L11.1326 0.848011L9.26785 2.71281L9.93588 3.71476C9.80114 3.97444 9.68877 4.24531 9.60038 4.52486L8.41938 4.76169V7.3996L9.59992 7.63598C9.68831 7.91553 9.80114 8.1864 9.93543 8.44608L9.26739 9.44802L9.93497 10.1154L5.61293 11.8447V14.0697C4.02859 14.2979 2.80647 15.6604 2.80647 17.3065V18.2419C2.80647 19.3519 3.3626 20.3328 4.2097 20.9248V21.6082L1.83171 22.1369C0.753023 22.3767 2.28882e-05 23.3156 2.28882e-05 24.4199V29H29V24.4199C29 23.3156 28.247 22.3767 27.1683 22.1373ZM23.8549 21.8553C23.7388 22.0343 23.4166 22.4516 22.9194 22.4516C22.4222 22.4516 22.0999 22.0339 21.9839 21.8553V21.3786C22.2803 21.467 22.5944 21.5161 22.9194 21.5161C23.2444 21.5161 23.5584 21.467 23.8549 21.3782V21.8553ZM25.2581 17.3065V18.2419C25.2581 19.5314 24.2089 20.5806 22.9194 20.5806C21.6299 20.5806 20.5807 19.5314 20.5807 18.2419V17.3065C20.5807 16.017 21.6299 14.9677 22.9194 14.9677C24.2089 14.9677 25.2581 16.017 25.2581 17.3065ZM22.4516 12.4778V14.0697C20.8673 14.2979 19.6452 15.6604 19.6452 17.3065V18.2419C19.6452 19.3519 20.2013 20.3328 21.0484 20.9248V21.6082L18.7097 22.128L16.371 21.6082V20.9248C17.2181 20.3324 17.7742 19.3515 17.7742 18.2419V17.3065C17.7742 15.6604 16.5521 14.2979 14.9678 14.0697V12.1613H15.819L16.0554 10.9807C16.3349 10.8924 16.6058 10.7795 16.8655 10.6452L17.8674 11.3133L18.345 10.8357L22.4516 12.4778ZM19.6452 28.0645H9.35486V24.4199C9.35486 23.7571 9.80662 23.1939 10.4536 23.0498L12.8826 22.5101C13.15 22.8645 13.6819 23.3871 14.5 23.3871C15.3181 23.3871 15.85 22.8645 16.1175 22.5105L18.5464 23.0502C19.1934 23.1939 19.6452 23.7575 19.6452 24.4199V28.0645ZM14.5 14.9677C15.7895 14.9677 16.8387 16.017 16.8387 17.3065V18.2419C16.8387 19.5314 15.7895 20.5806 14.5 20.5806C13.2105 20.5806 12.1613 19.5314 12.1613 18.2419V17.3065C12.1613 16.017 13.2105 14.9677 14.5 14.9677ZM14.5 21.5161C14.825 21.5161 15.1391 21.467 15.4355 21.3782V21.8548C15.3195 22.0343 14.9972 22.4516 14.5 22.4516C14.0028 22.4516 13.6806 22.0339 13.5645 21.8553V21.3786C13.861 21.467 14.175 21.5161 14.5 21.5161ZM9.35486 6.63266V5.52863L10.352 5.32901L10.4246 5.04376C10.5242 4.65161 10.6791 4.27797 10.8844 3.93287L11.0354 3.67936L10.471 2.83272L11.2516 2.05208L12.0983 2.61666L12.3518 2.46547C12.6969 2.26014 13.0705 2.10484 13.4627 2.00572L13.7479 1.93309L13.948 0.935484H15.052L15.2517 1.93263L15.5369 2.00526C15.9291 2.10484 16.3027 2.25969 16.6478 2.46501L16.9013 2.61597L17.748 2.05162L18.5286 2.83226L17.964 3.6789L18.1152 3.93241C18.3205 4.27751 18.4758 4.65115 18.575 5.0433L18.6476 5.32856L19.6452 5.52863V6.63266L18.648 6.83228L18.5754 7.11753C18.4758 7.50968 18.321 7.88332 18.1157 8.22842L17.9647 8.48193L18.529 9.32857L17.7484 10.1092L16.9018 9.54463L16.6483 9.69582C16.3032 9.90115 15.9295 10.0565 15.5374 10.1556L15.2521 10.2282L15.052 11.2258H13.948L13.7484 10.2287L13.4631 10.156C13.071 10.0565 12.6973 9.9016 12.3522 9.69628L12.0987 9.54532L11.2521 10.1097L10.4715 9.32903L11.036 8.48239L10.8848 8.22888C10.6795 7.88378 10.5242 7.51014 10.4251 7.11799L10.3525 6.83273L9.35486 6.63266ZM10.6551 10.8353L11.1326 11.3128L12.1346 10.6448C12.3943 10.7795 12.6651 10.8919 12.9447 10.9803L13.1811 12.1613H14.0323V14.0697C12.4479 14.2979 11.2258 15.6604 11.2258 17.3065V18.2419C11.2258 19.3519 11.782 20.3328 12.6291 20.9248V21.6082L10.2903 22.128L7.95164 21.6082V20.9248C8.79873 20.3324 9.35486 19.3515 9.35486 18.2419V17.3065C9.35486 15.6604 8.13275 14.2979 6.54841 14.0697V12.4778L10.6551 10.8353ZM3.74196 18.2419V17.3065C3.74196 16.017 4.79118 14.9677 6.08067 14.9677C7.37016 14.9677 8.41938 16.017 8.41938 17.3065V18.2419C8.41938 19.5314 7.37016 20.5806 6.08067 20.5806C4.79118 20.5806 3.74196 19.5314 3.74196 18.2419ZM6.08067 21.5161C6.40567 21.5161 6.7197 21.467 7.01615 21.3782V21.8548C6.90013 22.0343 6.57787 22.4516 6.08067 22.4516C5.58255 22.4516 5.25984 22.0325 5.14518 21.8553V21.3782C5.44163 21.467 5.75567 21.5161 6.08067 21.5161ZM0.935507 24.4199C0.935507 23.7571 1.38726 23.1939 2.03429 23.0498L4.46321 22.5101C4.73066 22.8645 5.26258 23.3871 6.08067 23.3871C6.89876 23.3871 7.43068 22.8645 7.69812 22.5105L9.06389 22.8141C8.66353 23.2354 8.41938 23.7987 8.41938 24.4199V28.0645H0.935507V24.4199ZM28.0645 28.0645H20.5807V24.4199C20.5807 23.7987 20.3365 23.235 19.9362 22.8136L21.3019 22.5101C21.5694 22.8645 22.1013 23.3871 22.9194 23.3871C23.7375 23.3871 24.2694 22.8645 24.5368 22.5105L26.9658 23.0502C27.6128 23.1939 28.0645 23.7575 28.0645 24.4199V28.0645Z" fill="#E3B873"/>
</g>
<defs>
<clipPath id="clip0_1_11493">
<rect width="29" height="29" fill="white"/>
</clipPath>
</defs>
</svg>
