<svg width="41" height="34" viewBox="0 0 41 34" fill="none" xmlns="http://www.w3.org/2000/svg">
<path d="M20.5861 24.2782C20.2079 24.2782 19.8991 24.5775 19.8991 24.9493V26.2739C19.8991 26.6457 20.2079 26.9449 20.5861 26.9449C20.9643 26.9449 21.273 26.6457 21.273 26.2739V24.9493C21.273 24.5775 20.9643 24.2782 20.5861 24.2782Z" fill="white" stroke="white" stroke-width="0.1"/>
<path d="M37.2805 15.0004L37.2805 15.0004C36.8299 12.8425 35.8195 10.8085 34.3586 9.11784C32.9521 7.49024 31.1524 6.20897 29.1455 5.40131C28.817 4.0653 28.1279 2.68768 26.7757 1.65028C25.4594 0.640511 24.1338 0.445856 24.0746 0.437535L24.0745 0.437527C23.8784 0.410226 23.6789 0.467229 23.5286 0.594533C23.3782 0.721871 23.2916 0.906828 23.2916 1.10183V4.40538H21.0704C20.4818 2.49132 18.6625 1.09327 16.5146 1.09327C14.3195 1.09327 12.4664 2.55326 11.9208 4.53234C8.77716 4.9581 5.88573 6.44883 3.73823 8.76232L3.77488 8.79633L3.73823 8.76232C1.47211 11.2039 0.223895 14.3646 0.223895 17.6624C0.223895 25.052 4.15229 31.0623 5.35584 32.7278C5.73667 33.2549 6.3599 33.5691 7.0227 33.5691H9.72994C10.8554 33.5691 11.7729 32.6749 11.7729 31.5732V30.7716C12.4419 30.8693 13.1209 30.9194 13.8008 30.9194H19.8993V31.5732C19.8993 32.6749 20.8169 33.5691 21.9423 33.5691H24.9161C25.8723 33.5691 26.7128 32.9066 26.9136 31.9917L27.2333 30.5352C31.4036 29.5336 34.7583 26.6771 36.4195 22.9705H38.9038C39.6551 22.9705 40.2683 22.3735 40.2683 21.6371V16.3377C40.2683 15.981 40.126 15.6459 39.8681 15.3941C39.6104 15.1425 39.2679 15.0041 38.9038 15.0041H38.9038H38.9038H38.9038H38.9037H38.9037H38.9037H38.9036L37.2816 15.0043C37.2812 15.003 37.2808 15.0017 37.2805 15.0004ZM38.8962 21.5869H38.8961V21.6284H36.9341C37.2693 20.5848 37.4759 19.4889 37.5359 18.3596C37.5557 17.9884 37.2635 17.6738 36.8862 17.6547C36.509 17.636 36.1853 17.9188 36.1656 18.29C35.8988 23.3126 32.4152 27.6061 27.5578 29.0564L28.4284 25.0901C28.5082 24.7265 28.2708 24.3704 27.9011 24.2931C27.5319 24.2156 27.1664 24.4453 27.0868 24.8084L25.572 31.7099C25.5065 32.0086 25.2309 32.227 24.9161 32.227H21.9422C21.5711 32.227 21.2713 31.9325 21.2713 31.5732V28.9235C21.2713 28.5517 20.963 28.2524 20.5852 28.2524C20.2074 28.2524 19.8991 28.5517 19.8991 28.9235V29.5773H13.8006C13.1198 29.5773 12.4401 29.5213 11.7728 29.4125V24.949C11.7728 24.5773 11.4645 24.278 11.0867 24.278C10.7089 24.278 10.4007 24.5773 10.4007 24.949V31.5732C10.4007 31.9326 10.1008 32.2271 9.72979 32.2271H7.0227C6.80038 32.2271 6.60179 32.127 6.4764 31.9533L6.47639 31.9533C5.33107 30.3681 1.59603 24.6542 1.59603 17.6624C1.59603 14.6989 2.71749 11.8586 4.75412 9.66443C6.6052 7.67005 9.07087 6.35588 11.7616 5.91371C11.7765 6.30169 11.8411 6.68524 11.9526 7.05501H11.7653C11.3875 7.05501 11.0792 7.35431 11.0792 7.72604C11.0792 8.09778 11.3875 8.39707 11.7653 8.39707H21.2638C21.6416 8.39707 21.9499 8.09778 21.9499 7.72604C21.9499 7.35431 21.6416 7.05501 21.2638 7.05501H21.0765C21.204 6.63247 21.2705 6.19201 21.2714 5.74736H23.2915V7.06358C23.2915 7.43531 23.5998 7.73461 23.9776 7.73461C24.3554 7.73461 24.6637 7.43531 24.6637 7.06358V1.98959C25.2574 2.2188 26.0809 2.66725 26.7658 3.52266C27.4764 4.41021 28.0408 5.73962 28.0408 7.72612C28.0408 8.09786 28.3491 8.39715 28.7268 8.39715C29.1046 8.39715 29.4129 8.09786 29.4129 7.72612C29.4129 7.48825 29.405 7.23841 29.3871 6.98057C30.884 7.70541 32.2272 8.73046 33.3107 9.98432C34.6237 11.5038 35.5315 13.3312 35.9362 15.269C36.0666 15.8938 36.6281 16.3465 37.271 16.3464L38.8962 16.3463V21.5869ZM16.5146 2.4354C18.382 2.4354 19.8992 3.91853 19.8992 5.73895C19.8992 6.19377 19.8018 6.64205 19.6179 7.05517L13.4112 7.05517C13.2273 6.6419 13.1298 6.19376 13.1298 5.73895C13.1298 3.91846 14.6471 2.4354 16.5146 2.4354Z" fill="white" stroke="white" stroke-width="0.1"/>
<path d="M28.1466 15.4405L28.1466 15.4405C28.5494 14.3857 29.6138 13.6794 30.7935 13.6794C31.9732 13.6794 33.0376 14.3858 33.4403 15.4405C33.5733 15.7887 33.3914 16.1751 33.0369 16.3041M28.1466 15.4405L29.4319 15.91C29.6342 15.3805 30.1803 15.0214 30.7934 15.0214C31.4066 15.0214 31.9527 15.3805 32.1549 15.91C32.2582 16.1805 32.5202 16.3464 32.7977 16.3464C32.8773 16.3464 32.9581 16.3328 33.0369 16.3041M28.1466 15.4405C28.0136 15.7888 28.1954 16.1751 28.55 16.3041M28.1466 15.4405L28.55 16.3041M33.0369 16.3041L33.0198 16.2571L33.0369 16.3041C33.0369 16.3041 33.0369 16.3041 33.0369 16.3041ZM28.55 16.3041C28.9041 16.4332 29.2993 16.2577 29.4319 15.91L28.55 16.3041Z" fill="white" stroke="white" stroke-width="0.1"/>
<path d="M19.4588 18.0757C18.8083 17.6339 17.9694 17.3632 17.2006 17.1509V14.072C17.7946 14.1491 18.2972 14.3214 18.6529 14.5342C19.0235 14.7558 19.2207 15.0121 19.2207 15.2406C19.2207 15.6123 19.529 15.9116 19.9068 15.9116C20.2846 15.9116 20.5929 15.6123 20.5929 15.2406C20.5929 14.585 20.2194 13.9989 19.6059 13.5557C19.0019 13.1193 18.1618 12.8183 17.2006 12.7204V12.6944C17.2006 12.3227 16.8923 12.0234 16.5145 12.0234C16.1367 12.0234 15.8284 12.3227 15.8284 12.6944V12.7204C14.8673 12.8183 14.0271 13.1193 13.4231 13.5557C12.8097 13.9989 12.4361 14.585 12.4361 15.2406C12.4361 16.1681 12.907 16.799 13.5702 17.2494C14.2207 17.6912 15.0596 17.9619 15.8284 18.1742V21.2531C15.2344 21.176 14.7319 21.0037 14.3761 20.7909C14.0055 20.5693 13.8083 20.313 13.8083 20.0845C13.8083 19.7128 13.5 19.4135 13.1222 19.4135C12.7444 19.4135 12.4361 19.7128 12.4361 20.0845C12.4361 20.7401 12.8097 21.3262 13.4231 21.7694C14.0271 22.2058 14.8673 22.5068 15.8284 22.6047V22.6307C15.8284 23.0024 16.1367 23.3017 16.5145 23.3017C16.8923 23.3017 17.2006 23.0024 17.2006 22.6307V22.6047C18.1618 22.5068 19.0019 22.2058 19.6059 21.7694C20.2194 21.3262 20.5929 20.7401 20.5929 20.0845C20.5929 19.157 20.122 18.5261 19.4588 18.0757ZM15.8284 14.072V16.7681C15.0819 16.5358 14.5788 16.3146 14.2611 16.0733C13.9377 15.8276 13.8083 15.5627 13.8083 15.2406C13.8083 15.0121 14.0055 14.7558 14.3761 14.5342C14.7319 14.3214 15.2344 14.1491 15.8284 14.072ZM18.6529 20.791C18.2971 21.0038 17.7945 21.1761 17.2006 21.2532V18.5571C17.9472 18.7893 18.4502 19.0105 18.7679 19.2519C19.0913 19.4976 19.2207 19.7625 19.2207 20.0846C19.2207 20.3131 19.0235 20.5694 18.6529 20.791Z" fill="white" stroke="white" stroke-width="0.1"/>
</svg>
